<svg width="49" height="63" viewBox="0 0 49 63" fill="none" xmlns="http://www.w3.org/2000/svg">
<path d="M24.3824 42.9598C34.6423 42.9598 42.9596 34.6425 42.9596 24.3826C42.9596 14.1227 34.6423 5.80542 24.3824 5.80542C14.1225 5.80542 5.80518 14.1227 5.80518 24.3826C5.80518 34.6425 14.1225 42.9598 24.3824 42.9598Z" stroke="#FB9191" stroke-width="1.87558" stroke-linecap="round" stroke-linejoin="round"/>
<path d="M37.1545 11.6108L11.6108 37.1545" stroke="#FB9191" stroke-width="1.87558" stroke-linecap="round" stroke-linejoin="round"/>
<g clip-path="url(#clip0_433_107)">
<path d="M27.6653 24.8514C28.1167 24.8514 28.4859 24.4822 28.4859 24.0309V23.2103C28.4859 22.759 28.1167 22.3897 27.6653 22.3897C27.214 22.3897 26.8448 22.759 26.8448 23.2103V24.0309C26.8448 24.4822 27.214 24.8514 27.6653 24.8514ZM16.1035 16.2355C17.0636 16.2355 17.8842 16.8755 18.1386 17.7535C17.8596 18.0325 17.6298 18.3525 17.4411 18.6972H16.2512C15.6876 18.6972 15.147 18.4733 14.7485 18.0747C14.3499 17.6761 14.126 17.1356 14.126 16.5719V16.4078C14.126 16.3093 14.1998 16.2355 14.2983 16.2355H16.1035ZM22.7419 28.9543C22.7419 29.1719 22.6555 29.3806 22.5016 29.5345C22.3477 29.6884 22.139 29.7748 21.9214 29.7748C21.7037 29.7748 21.495 29.6884 21.3411 29.5345C21.1873 29.3806 21.1008 29.1719 21.1008 28.9543C21.1008 28.7366 21.1873 28.5279 21.3411 28.374C21.495 28.2202 21.7037 28.1337 21.9214 28.1337C22.139 28.1337 22.3477 28.2202 22.5016 28.374C22.6555 28.5279 22.7419 28.7366 22.7419 28.9543ZM26.8448 29.7748C27.0624 29.7748 27.2711 29.6884 27.425 29.5345C27.5789 29.3806 27.6653 29.1719 27.6653 28.9543C27.6653 28.7366 27.5789 28.5279 27.425 28.374C27.2711 28.2202 27.0624 28.1337 26.8448 28.1337C26.6271 28.1337 26.4184 28.2202 26.2645 28.374C26.1107 28.5279 26.0242 28.7366 26.0242 28.9543C26.0242 29.1719 26.1107 29.3806 26.2645 29.5345C26.4184 29.6884 26.6271 29.7748 26.8448 29.7748Z" fill="#FB9191"/>
<path d="M22.0433 12.6226L22.0351 12.6267C21.7897 12.7243 21.5378 12.8482 21.2884 13.0205C20.2528 13.7057 19.598 14.7011 19.4798 15.8671C19.1007 15.3463 18.604 14.9224 18.03 14.63C17.4561 14.3375 16.8212 14.1848 16.1771 14.1841H13.3051C12.9786 14.1841 12.6656 14.3138 12.4347 14.5446C12.2039 14.7754 12.0742 15.0885 12.0742 15.4149V16.6458C12.0742 17.7339 12.5065 18.7775 13.2759 19.5469C13.6569 19.9279 14.1092 20.2301 14.607 20.4363C15.1047 20.6425 15.6383 20.7486 16.1771 20.7486V27.3764C15.657 28.1942 15.373 29.1398 15.3565 30.1089C15.3382 31.5007 15.8647 32.8446 16.8237 33.8536C17.7827 34.8626 19.0981 35.4567 20.4891 35.509C20.9956 36.0288 21.6011 36.442 22.2698 36.7241C22.9385 37.0061 23.657 37.1515 24.3827 37.1515C25.1085 37.1515 25.8269 37.0061 26.4957 36.7241C27.1644 36.442 27.7698 36.0288 28.2763 35.509C29.6674 35.4567 30.9828 34.8626 31.9418 33.8536C32.9008 32.8446 33.4273 31.5007 33.409 30.1089C33.393 29.1387 33.109 28.1919 32.5884 27.3731V20.7486C33.6766 20.7486 34.7201 20.3164 35.4896 19.5469C36.259 18.7775 36.6913 17.7339 36.6913 16.6458V15.4149C36.6913 15.0885 36.5616 14.7754 36.3307 14.5446C36.0999 14.3138 35.7868 14.1841 35.4604 14.1841H32.5884C31.622 14.1849 30.6871 14.5279 29.9495 15.1524C29.6795 14.299 29.1076 13.5564 28.2968 13.0205C28.0639 12.8615 27.8136 12.7294 27.5509 12.6267L27.5427 12.6226C26.5769 12.2492 25.708 13.247 26.1133 14.1447L26.1158 14.1513L26.1191 14.1578C26.38 14.7076 26.4333 15.2599 26.2389 15.8252H23.4965C23.4724 15.7038 23.4513 15.5818 23.4333 15.4593C23.3927 15.1979 23.3743 14.9335 23.3784 14.669C23.3866 14.4122 23.426 14.2465 23.4678 14.1578L23.4711 14.1513L23.4735 14.1447C23.8789 13.247 23.0091 12.2492 22.0433 12.6226ZM20.6902 17.4664H25.2033L26.3357 18.5987C26.7582 19.0207 27.2598 19.3553 27.8117 19.5834C28.3637 19.8115 28.9551 19.9286 29.5523 19.9281H30.9202L30.93 20.0183C30.9415 20.125 30.9473 20.2317 30.9473 20.3384V26.898C30.0805 26.3597 29.0792 26.0772 28.0589 26.0831H23.5622V24.9499C23.5622 22.8329 22.4462 20.6912 20.6902 19.5178C19.8138 18.9311 17.8182 19.1075 17.8182 19.1075H16.1771C15.5242 19.1075 14.898 18.8481 14.4364 18.3865C13.9747 17.9248 13.7154 17.2987 13.7154 16.6458V15.8252H16.1771C16.6552 15.825 17.1231 15.964 17.5235 16.2253C17.9239 16.4865 18.2396 16.8588 18.432 17.2965L18.7643 18.0531L19.5184 17.715C19.8877 17.5509 20.2865 17.4655 20.6902 17.4664ZM20.6902 33.8777C20.2006 33.8778 19.7159 33.7805 19.2643 33.5915C18.8127 33.4025 18.4031 33.1256 18.0595 32.7768C17.7159 32.4281 17.4451 32.0145 17.2628 31.5602C17.0805 31.1058 16.9903 30.6197 16.9976 30.1302C17.0075 29.3921 17.2412 28.6744 17.668 28.0722L17.7255 27.991C18.4853 27.3115 19.5635 26.8832 20.7731 26.9037H28.0597C29.243 26.9004 30.2957 27.3238 31.0408 27.9893L31.0974 28.0697C31.5241 28.6729 31.7588 29.3909 31.7678 30.1302C31.775 30.6197 31.6848 31.1057 31.5025 31.56C31.3201 32.0143 31.0493 32.4279 30.7057 32.7766C30.3621 33.1253 29.9526 33.4022 29.5011 33.5913C29.0495 33.7803 28.5648 33.8777 28.0753 33.8777H20.6902ZM22.0261 34.6983H26.7328C26.1799 35.1318 25.518 35.4042 24.82 35.4853C24.1221 35.5664 23.4153 35.453 22.7777 35.1578C22.5102 35.0342 22.258 34.88 22.0261 34.6983ZM32.5884 19.1075H31.5118C31.4576 18.9672 31.3952 18.8302 31.3247 18.6972H32.5146C33.0782 18.6972 33.6188 18.4733 34.0174 18.0747C34.4159 17.6762 34.6398 17.1356 34.6398 16.5719V16.4078C34.6398 16.3094 34.566 16.2355 34.4675 16.2355H32.6623C31.7022 16.2355 30.8816 16.8756 30.6273 17.7536C30.6355 17.7618 30.6412 17.7692 30.647 17.7774C30.5272 17.6573 30.3998 17.5452 30.2654 17.4417L30.3294 17.294C30.5224 16.8561 30.8389 16.484 31.2401 16.2231C31.6413 15.9622 32.1099 15.824 32.5884 15.8252H35.0501V16.6458C35.0501 17.2987 34.7908 17.9248 34.3291 18.3865C33.8674 18.8481 33.2413 19.1075 32.5884 19.1075ZM20.2799 24.0309V23.2103C20.2799 22.759 20.6492 22.3898 21.1005 22.3898C21.5518 22.3898 21.921 22.759 21.921 23.2103V24.0309C21.921 24.4822 21.5518 24.8515 21.1005 24.8515C20.6492 24.8515 20.2799 24.4822 20.2799 24.0309Z" fill="#FB9191"/>
</g>
<path d="M2.93529 52.2194C3.623 52.2194 4.22631 52.3538 4.74523 52.6226C5.27039 52.8914 5.67364 53.2759 5.95498 53.7761C6.24257 54.27 6.38636 54.8452 6.38636 55.5016C6.38636 56.1581 6.24257 56.7333 5.95498 57.2272C5.67364 57.7148 5.27039 58.0931 4.74523 58.3619C4.22631 58.6307 3.623 58.7651 2.93529 58.7651H0.647076V52.2194H2.93529ZM2.8884 57.6492C3.57611 57.6492 4.10753 57.4616 4.48264 57.0865C4.85776 56.7114 5.04532 56.1831 5.04532 55.5016C5.04532 54.8202 4.85776 54.2887 4.48264 53.9074C4.10753 53.5198 3.57611 53.3259 2.8884 53.3259H1.95998V57.6492H2.8884ZM7.03153 56.1487C7.03153 55.6235 7.13469 55.1578 7.341 54.7514C7.55357 54.345 7.83803 54.0324 8.19439 53.8136C8.55701 53.5948 8.96026 53.4854 9.40415 53.4854C9.79177 53.4854 10.1294 53.5635 10.417 53.7198C10.7108 53.8761 10.9452 54.0731 11.1203 54.3106V53.5698H12.4426V58.7651H11.1203V58.0055C10.9515 58.2494 10.7171 58.4525 10.417 58.6151C10.1231 58.7714 9.78239 58.8495 9.39477 58.8495C8.95713 58.8495 8.55701 58.737 8.19439 58.5119C7.83803 58.2869 7.55357 57.9711 7.341 57.5648C7.13469 57.1521 7.03153 56.6801 7.03153 56.1487ZM11.1203 56.1675C11.1203 55.8486 11.0578 55.5766 10.9327 55.3516C10.8077 55.1203 10.6389 54.9452 10.4263 54.8264C10.2138 54.7014 9.98558 54.6389 9.74175 54.6389C9.49792 54.6389 9.27285 54.6982 9.06654 54.817C8.86023 54.9358 8.69142 55.1109 8.56013 55.3422C8.43509 55.5673 8.37257 55.8361 8.37257 56.1487C8.37257 56.4613 8.43509 56.7364 8.56013 56.974C8.69142 57.2053 8.86023 57.3835 9.06654 57.5085C9.27911 57.6335 9.50418 57.6961 9.74175 57.6961C9.98558 57.6961 10.2138 57.6367 10.4263 57.5179C10.6389 57.3928 10.8077 57.2178 10.9327 56.9927C11.0578 56.7614 11.1203 56.4863 11.1203 56.1675ZM14.3907 52.9508C14.1594 52.9508 13.9656 52.8789 13.8093 52.7351C13.6592 52.5851 13.5842 52.4007 13.5842 52.1818C13.5842 51.963 13.6592 51.7817 13.8093 51.6379C13.9656 51.4879 14.1594 51.4128 14.3907 51.4128C14.622 51.4128 14.8127 51.4879 14.9628 51.6379C15.1191 51.7817 15.1972 51.963 15.1972 52.1818C15.1972 52.4007 15.1191 52.5851 14.9628 52.7351C14.8127 52.8789 14.622 52.9508 14.3907 52.9508ZM15.0378 53.5698V58.7651H13.7249V53.5698H15.0378ZM17.6478 54.3763C17.8166 54.1012 18.0355 53.8855 18.3043 53.7292C18.5794 53.5729 18.892 53.4947 19.2421 53.4947V54.8733H18.8951C18.4825 54.8733 18.1699 54.9702 17.9573 55.164C17.751 55.3578 17.6478 55.6954 17.6478 56.1768V58.7651H16.3349V53.5698H17.6478V54.3763ZM25.0967 53.5698L21.8801 61.2222H20.4828L21.6081 58.6338L19.5262 53.5698H20.9985L22.3396 57.199L23.6994 53.5698H25.0967ZM32.0809 52.2194V53.2791H29.3519V54.9577H31.4432V55.9987H29.3519V58.7651H28.039V52.2194H32.0809ZM34.3248 54.3763C34.4936 54.1012 34.7124 53.8855 34.9812 53.7292C35.2563 53.5729 35.5689 53.4947 35.919 53.4947V54.8733H35.572C35.1594 54.8733 34.8468 54.9702 34.6343 55.164C34.4279 55.3578 34.3248 55.6954 34.3248 56.1768V58.7651H33.0119V53.5698H34.3248V54.3763ZM41.633 56.0549C41.633 56.2425 41.6205 56.4113 41.5955 56.5613H37.7974C37.8287 56.9364 37.9599 57.2303 38.1913 57.4429C38.4226 57.6554 38.7071 57.7617 39.0447 57.7617C39.5323 57.7617 39.8793 57.5523 40.0856 57.1334H41.5017C41.3516 57.6335 41.064 58.0462 40.6389 58.3713C40.2138 58.6901 39.6917 58.8495 39.0728 58.8495C38.5726 58.8495 38.1225 58.7401 37.7224 58.5213C37.3285 58.2962 37.019 57.9805 36.794 57.5741C36.5751 57.1678 36.4657 56.6989 36.4657 56.1675C36.4657 55.6298 36.5751 55.1578 36.794 54.7514C37.0128 54.345 37.3191 54.0324 37.713 53.8136C38.1069 53.5948 38.5601 53.4854 39.0728 53.4854C39.5667 53.4854 40.0075 53.5917 40.3951 53.8042C40.789 54.0168 41.0922 54.32 41.3047 54.7139C41.5236 55.1015 41.633 55.5485 41.633 56.0549ZM40.2732 55.6798C40.2669 55.3422 40.145 55.0734 39.9074 54.8733C39.6699 54.667 39.3791 54.5638 39.0353 54.5638C38.7102 54.5638 38.4351 54.6639 38.21 54.8639C37.9912 55.0577 37.8568 55.3297 37.8068 55.6798H40.2732ZM47.4209 56.0549C47.4209 56.2425 47.4084 56.4113 47.3834 56.5613H43.5853C43.6166 56.9364 43.7479 57.2303 43.9792 57.4429C44.2105 57.6554 44.495 57.7617 44.8326 57.7617C45.3202 57.7617 45.6672 57.5523 45.8735 57.1334H47.2896C47.1396 57.6335 46.852 58.0462 46.4268 58.3713C46.0017 58.6901 45.4797 58.8495 44.8607 58.8495C44.3606 58.8495 43.9104 58.7401 43.5103 58.5213C43.1164 58.2962 42.807 57.9805 42.5819 57.5741C42.3631 57.1678 42.2537 56.6989 42.2537 56.1675C42.2537 55.6298 42.3631 55.1578 42.5819 54.7514C42.8007 54.345 43.1071 54.0324 43.5009 53.8136C43.8948 53.5948 44.3481 53.4854 44.8607 53.4854C45.3546 53.4854 45.7954 53.5917 46.183 53.8042C46.5769 54.0168 46.8801 54.32 47.0927 54.7139C47.3115 55.1015 47.4209 55.5485 47.4209 56.0549ZM46.0611 55.6798C46.0548 55.3422 45.9329 55.0734 45.6954 54.8733C45.4578 54.667 45.1671 54.5638 44.8232 54.5638C44.4981 54.5638 44.223 54.6639 43.998 54.8639C43.7791 55.0577 43.6447 55.3297 43.5947 55.6798H46.0611Z" fill="#FB9191"/>
<defs>
<clipPath id="clip0_433_107">
<rect width="26.2582" height="26.2582" fill="white" transform="translate(11.2539 11.7223)"/>
</clipPath>
</defs>
</svg>
