<svg width="50" height="63" viewBox="0 0 50 63" fill="none" xmlns="http://www.w3.org/2000/svg">
<path d="M24.5738 42.7811C34.8337 42.7811 43.151 34.4638 43.151 24.2039C43.151 13.944 34.8337 5.62671 24.5738 5.62671C14.3139 5.62671 5.99658 13.944 5.99658 24.2039C5.99658 34.4638 14.3139 42.7811 24.5738 42.7811Z" stroke="#FB9191" stroke-width="1.87558" stroke-linecap="round" stroke-linejoin="round"/>
<path d="M37.3459 11.432L11.8022 36.9757" stroke="#FB9191" stroke-width="1.87558" stroke-linecap="round" stroke-linejoin="round"/>
<path d="M19.0785 15.2226C19.7382 14.2533 20.6247 13.4597 21.661 12.911C22.6972 12.3623 23.8518 12.075 25.0243 12.0741C26.1866 12.0756 27.3313 12.3585 28.3604 12.8986C29.3896 13.4388 30.2726 14.2201 30.9341 15.1758L30.9349 15.1775C33.4415 18.8095 34.5898 23.2079 34.1786 27.6017V27.6042L34.1047 28.3632V28.3656C33.8963 30.6381 32.8457 32.7505 31.1593 34.2879C29.4729 35.8253 27.2727 36.6767 24.9907 36.6747C20.2782 36.6747 16.3296 33.097 15.8783 28.4018V28.3993L15.8126 27.7461V27.7437C15.3927 23.3804 16.5098 19.0074 18.971 15.3802L18.9726 15.3769L19.0785 15.2226ZM25.0243 13.7152C24.1193 13.716 23.2281 13.9379 22.4283 14.3615C21.6284 14.785 20.9441 15.3976 20.4349 16.1458L20.4332 16.1482L20.3282 16.3025C18.0826 19.6132 17.0636 23.6041 17.4472 27.5861L17.5128 28.2426C17.6918 30.1018 18.5571 31.8276 19.9399 33.0832C21.3227 34.3389 23.1237 35.0342 24.9915 35.0336C26.8643 35.0352 28.67 34.3364 30.0538 33.0745C31.4377 31.8126 32.2996 30.0789 32.4702 28.2138V28.2097L32.544 27.4491V27.4474C32.9194 23.4384 31.8722 19.425 29.5859 16.1105C29.0753 15.3725 28.3936 14.7692 27.5991 14.3521C26.8046 13.9349 25.9217 13.7164 25.0243 13.7152Z" fill="#FB9191"/>
<path d="M26.6279 18.287C27.8873 19.0741 30.3494 21.7818 30.1227 26.3156" stroke="#FB9191" stroke-width="1.40669" stroke-linecap="round"/>
<path d="M4.71291 53.2791V54.9202H6.91672V55.9611H4.71291V57.6961H7.19806V58.7651H3.40001V52.21H7.19806V53.2791H4.71291ZM10.4262 53.4854C10.8138 53.4854 11.1545 53.5635 11.4484 53.7198C11.7422 53.8699 11.9735 54.0668 12.1423 54.3106V53.5698H13.4646V58.8026C13.4646 59.284 13.3677 59.7123 13.1739 60.0874C12.9801 60.4688 12.6894 60.7689 12.3018 60.9877C11.9142 61.2128 11.4453 61.3253 10.8951 61.3253C10.1574 61.3253 9.55092 61.1534 9.07577 60.8095C8.60687 60.4657 8.34117 59.9968 8.27865 59.4028H9.58218C9.65095 59.6404 9.79787 59.828 10.0229 59.9655C10.2543 60.1093 10.5325 60.1812 10.8576 60.1812C11.2389 60.1812 11.5484 60.0655 11.786 59.8342C12.0236 59.6091 12.1423 59.2653 12.1423 58.8026V57.9961C11.9735 58.24 11.7391 58.4432 11.439 58.6057C11.1452 58.7683 10.8076 58.8495 10.4262 58.8495C9.98855 58.8495 9.58843 58.737 9.22582 58.5119C8.8632 58.2869 8.57561 57.9711 8.36305 57.5648C8.15673 57.1521 8.05358 56.6801 8.05358 56.1487C8.05358 55.6235 8.15673 55.1578 8.36305 54.7514C8.57561 54.345 8.86008 54.0324 9.21644 53.8136C9.57905 53.5948 9.9823 53.4854 10.4262 53.4854ZM12.1423 56.1675C12.1423 55.8486 12.0798 55.5766 11.9548 55.3516C11.8298 55.1203 11.6609 54.9452 11.4484 54.8264C11.2358 54.7014 11.0076 54.6389 10.7638 54.6389C10.52 54.6389 10.2949 54.6982 10.0886 54.817C9.88227 54.9358 9.71347 55.1109 9.58218 55.3422C9.45714 55.5673 9.39462 55.8361 9.39462 56.1487C9.39462 56.4613 9.45714 56.7364 9.58218 56.974C9.71347 57.2053 9.88227 57.3835 10.0886 57.5085C10.3012 57.6335 10.5262 57.6961 10.7638 57.6961C11.0076 57.6961 11.2358 57.6367 11.4484 57.5179C11.6609 57.3928 11.8298 57.2178 11.9548 56.9927C12.0798 56.7614 12.1423 56.4863 12.1423 56.1675ZM16.7819 53.4854C17.1695 53.4854 17.5103 53.5635 17.8041 53.7198C18.098 53.8699 18.3293 54.0668 18.4981 54.3106V53.5698H19.8204V58.8026C19.8204 59.284 19.7235 59.7123 19.5297 60.0874C19.3358 60.4688 19.0451 60.7689 18.6575 60.9877C18.2699 61.2128 17.801 61.3253 17.2508 61.3253C16.5131 61.3253 15.9067 61.1534 15.4315 60.8095C14.9626 60.4657 14.6969 59.9968 14.6344 59.4028H15.9379C16.0067 59.6404 16.1536 59.828 16.3787 59.9655C16.61 60.1093 16.8882 60.1812 17.2133 60.1812C17.5947 60.1812 17.9042 60.0655 18.1417 59.8342C18.3793 59.6091 18.4981 59.2653 18.4981 58.8026V57.9961C18.3293 58.24 18.0948 58.4432 17.7947 58.6057C17.5009 58.7683 17.1633 58.8495 16.7819 58.8495C16.3443 58.8495 15.9442 58.737 15.5816 58.5119C15.2189 58.2869 14.9314 57.9711 14.7188 57.5648C14.5125 57.1521 14.4093 56.6801 14.4093 56.1487C14.4093 55.6235 14.5125 55.1578 14.7188 54.7514C14.9314 54.345 15.2158 54.0324 15.5722 53.8136C15.9348 53.5948 16.338 53.4854 16.7819 53.4854ZM18.4981 56.1675C18.4981 55.8486 18.4356 55.5766 18.3105 55.3516C18.1855 55.1203 18.0167 54.9452 17.8041 54.8264C17.5916 54.7014 17.3634 54.6389 17.1195 54.6389C16.8757 54.6389 16.6506 54.6982 16.4443 54.817C16.238 54.9358 16.0692 55.1109 15.9379 55.3422C15.8129 55.5673 15.7504 55.8361 15.7504 56.1487C15.7504 56.4613 15.8129 56.7364 15.9379 56.974C16.0692 57.2053 16.238 57.3835 16.4443 57.5085C16.6569 57.6335 16.882 57.6961 17.1195 57.6961C17.3634 57.6961 17.5916 57.6367 17.8041 57.5179C18.0167 57.3928 18.1855 57.2178 18.3105 56.9927C18.4356 56.7614 18.4981 56.4863 18.4981 56.1675ZM25.0976 54.8639V55.9705H21.1214V54.8639H25.0976ZM30.6119 52.2194V53.2791H27.883V54.9577H29.9742V55.9987H27.883V58.7651H26.5701V52.2194H30.6119ZM32.8558 54.3763C33.0246 54.1012 33.2434 53.8855 33.5123 53.7292C33.7874 53.5729 34.1 53.4947 34.4501 53.4947V54.8733H34.1031C33.6905 54.8733 33.3779 54.9702 33.1653 55.164C32.959 55.3578 32.8558 55.6954 32.8558 56.1768V58.7651H31.5429V53.5698H32.8558V54.3763ZM40.164 56.0549C40.164 56.2425 40.1515 56.4113 40.1265 56.5613H36.3284C36.3597 56.9364 36.491 57.2303 36.7223 57.4429C36.9536 57.6554 37.2381 57.7617 37.5757 57.7617C38.0633 57.7617 38.4103 57.5523 38.6166 57.1334H40.0327C39.8827 57.6335 39.5951 58.0462 39.1699 58.3713C38.7448 58.6901 38.2228 58.8495 37.6038 58.8495C37.1037 58.8495 36.6535 58.7401 36.2534 58.5213C35.8595 58.2962 35.5501 57.9805 35.325 57.5741C35.1062 57.1678 34.9968 56.6989 34.9968 56.1675C34.9968 55.6298 35.1062 55.1578 35.325 54.7514C35.5438 54.345 35.8502 54.0324 36.244 53.8136C36.6379 53.5948 37.0912 53.4854 37.6038 53.4854C38.0977 53.4854 38.5385 53.5917 38.9261 53.8042C39.32 54.0168 39.6232 54.32 39.8358 54.7139C40.0546 55.1015 40.164 55.5485 40.164 56.0549ZM38.8042 55.6798C38.798 55.3422 38.676 55.0734 38.4385 54.8733C38.2009 54.667 37.9102 54.5638 37.5663 54.5638C37.2412 54.5638 36.9661 54.6639 36.7411 54.8639C36.5222 55.0577 36.3878 55.3297 36.3378 55.6798H38.8042ZM45.9519 56.0549C45.9519 56.2425 45.9394 56.4113 45.9144 56.5613H42.1164C42.1476 56.9364 42.2789 57.2303 42.5102 57.4429C42.7416 57.6554 43.026 57.7617 43.3636 57.7617C43.8513 57.7617 44.1983 57.5523 44.4046 57.1334H45.8206C45.6706 57.6335 45.383 58.0462 44.9579 58.3713C44.5327 58.6901 44.0107 58.8495 43.3918 58.8495C42.8916 58.8495 42.4415 58.7401 42.0413 58.5213C41.6475 58.2962 41.338 57.9805 41.1129 57.5741C40.8941 57.1678 40.7847 56.6989 40.7847 56.1675C40.7847 55.6298 40.8941 55.1578 41.1129 54.7514C41.3317 54.345 41.6381 54.0324 42.032 53.8136C42.4258 53.5948 42.8791 53.4854 43.3918 53.4854C43.8857 53.4854 44.3264 53.5917 44.714 53.8042C45.1079 54.0168 45.4111 54.32 45.6237 54.7139C45.8425 55.1015 45.9519 55.5485 45.9519 56.0549ZM44.5921 55.6798C44.5859 55.3422 44.464 55.0734 44.2264 54.8733C43.9888 54.667 43.6981 54.5638 43.3543 54.5638C43.0292 54.5638 42.7541 54.6639 42.529 54.8639C42.3102 55.0577 42.1758 55.3297 42.1257 55.6798H44.5921Z" fill="#FB9191"/>
</svg>
