<svg width="49" height="63" viewBox="0 0 49 63" fill="none" xmlns="http://www.w3.org/2000/svg">
<path d="M24.3912 42.9598C34.6511 42.9598 42.9684 34.6425 42.9684 24.3826C42.9684 14.1227 34.6511 5.80542 24.3912 5.80542C14.1313 5.80542 5.81396 14.1227 5.81396 24.3826C5.81396 34.6425 14.1313 42.9598 24.3912 42.9598Z" stroke="#FB9191" stroke-width="1.87558" stroke-linecap="round" stroke-linejoin="round"/>
<path d="M37.1628 11.6108L11.6191 37.1545" stroke="#FB9191" stroke-width="1.87558" stroke-linecap="round" stroke-linejoin="round"/>
<g clip-path="url(#clip0_433_127)">
<path d="M31.0727 23.3236C30.9006 23.4958 30.6813 23.613 30.4425 23.6605C30.2037 23.708 29.9563 23.6836 29.7314 23.5904C29.5064 23.4973 29.3142 23.3395 29.179 23.1371C29.0437 22.9347 28.9715 22.6967 28.9715 22.4533C28.9715 22.2098 29.0437 21.9719 29.179 21.7695C29.3142 21.567 29.5064 21.4093 29.7314 21.3161C29.9563 21.223 30.2037 21.1986 30.4425 21.2461C30.6813 21.2936 30.9006 21.4108 31.0727 21.5829C31.3036 21.8138 31.4332 22.1268 31.4332 22.4533C31.4332 22.7797 31.3036 23.0928 31.0727 23.3236ZM28.0896 32.0902C24.6713 32.497 21.2291 31.1393 17.85 28.0547L12.525 30.1885C12.3752 30.2489 12.211 30.2637 12.0528 30.2312C11.8946 30.1987 11.7496 30.1203 11.6358 30.0057L11.5988 29.9687C11.4867 29.8416 11.4167 29.683 11.3984 29.5146C11.3801 29.3461 11.4144 29.1762 11.4965 29.028L14.183 24.1932L11.5009 19.3585C11.4178 19.2106 11.3827 19.0405 11.4002 18.8718C11.4178 18.7031 11.4872 18.5439 11.599 18.4163C11.7107 18.2886 11.8593 18.1988 12.0242 18.159C12.1891 18.1193 12.3623 18.1316 12.5199 18.1944L17.8457 20.3289C21.2233 17.2414 24.6684 15.8865 28.0867 16.2949C33.6867 16.9629 37.3515 22.248 38.0297 23.3004C38.2006 23.5655 38.2914 23.8742 38.2914 24.1896C38.2914 24.505 38.2006 24.8137 38.0297 25.0788C37.3566 26.1348 33.6881 31.4251 28.0853 32.0945L28.0896 32.0902ZM23.5928 29.8664C23.1776 28.9402 23.0346 27.9148 23.1807 26.9103C23.3267 25.9058 23.7557 24.9636 24.4175 24.194C23.7557 23.4246 23.3268 22.4826 23.1807 21.4783C23.0347 20.4741 23.1776 19.449 23.5928 18.523C21.9348 19.1656 20.266 20.289 18.5942 21.8825C18.4803 21.9909 18.3377 22.0644 18.1832 22.0941C18.0288 22.1238 17.8691 22.1085 17.7231 22.05L14.0561 20.5806L15.8395 23.7958C15.9071 23.9176 15.9426 24.0546 15.9426 24.194C15.9426 24.3333 15.9071 24.4703 15.8395 24.5921L14.0539 27.8052L17.7231 26.3379C17.8696 26.2793 18.0298 26.2641 18.1847 26.2942C18.3396 26.3243 18.4825 26.3984 18.5963 26.5076C20.2652 28.0996 21.9356 29.2216 23.5928 29.8664ZM36.6531 24.194C36.0453 23.2496 32.7648 18.5084 27.8952 17.9282C27.2811 17.8554 26.6608 17.8515 26.0458 17.9166C25.6388 18.2679 25.3134 18.7038 25.0924 19.1939C24.8714 19.684 24.7601 20.2165 24.7663 20.7541C24.7724 21.2917 24.8959 21.8214 25.128 22.3063C25.3602 22.7912 25.6954 23.2196 26.1103 23.5615C26.2035 23.6385 26.2784 23.7351 26.3299 23.8444C26.3814 23.9538 26.4081 24.0731 26.4081 24.194C26.4081 24.3148 26.3814 24.4342 26.3299 24.5435C26.2784 24.6528 26.2035 24.7494 26.1103 24.8264C25.6953 25.1684 25.3599 25.597 25.1277 26.0821C24.8955 26.5672 24.7721 27.0971 24.7661 27.6349C24.7601 28.1727 24.8717 28.7053 25.0929 29.1955C25.3142 29.6857 25.6399 30.1216 26.0472 30.4728C26.6612 30.5378 27.2806 30.5339 27.8938 30.4612C32.7634 29.8809 36.0446 25.139 36.6531 24.194Z" fill="#FB9191"/>
</g>
<path d="M6.58105 52.2194V53.2791H3.85207V54.9577H5.94335V55.9987H3.85207V58.7651H2.53917V52.2194H6.58105ZM8.17786 52.9508C7.94654 52.9508 7.75273 52.8789 7.59643 52.7351C7.44638 52.5851 7.37136 52.4007 7.37136 52.1818C7.37136 51.963 7.44638 51.7817 7.59643 51.6379C7.75273 51.4879 7.94654 51.4128 8.17786 51.4128C8.40918 51.4128 8.59986 51.4879 8.74991 51.6379C8.90621 51.7817 8.98436 51.963 8.98436 52.1818C8.98436 52.4007 8.90621 52.5851 8.74991 52.7351C8.59986 52.8789 8.40918 52.9508 8.17786 52.9508ZM8.82493 53.5698V58.7651H7.51203V53.5698H8.82493ZM12.1102 58.8495C11.6851 58.8495 11.3037 58.7745 10.9661 58.6245C10.6285 58.4682 10.3597 58.2587 10.1596 57.9961C9.96579 57.7336 9.85951 57.4429 9.84075 57.124H11.163C11.188 57.3241 11.285 57.4897 11.4538 57.621C11.6288 57.7523 11.8445 57.818 12.1008 57.818C12.3509 57.818 12.5447 57.768 12.6823 57.6679C12.8261 57.5679 12.898 57.4397 12.898 57.2834C12.898 57.1146 12.8104 56.9896 12.6354 56.9083C12.4666 56.8208 12.1946 56.727 11.8195 56.627C11.4319 56.5332 11.113 56.4363 10.8629 56.3363C10.6191 56.2362 10.4066 56.0831 10.2252 55.8767C10.0502 55.6704 9.96267 55.3922 9.96267 55.0421C9.96267 54.7545 10.0439 54.4919 10.2065 54.2544C10.3753 54.0168 10.6129 53.8292 10.9192 53.6917C11.2318 53.5541 11.5975 53.4854 12.0164 53.4854C12.6354 53.4854 13.1293 53.6417 13.4981 53.9543C13.867 54.2606 14.0702 54.6764 14.1077 55.2015H12.8511C12.8323 54.9952 12.7448 54.8327 12.5885 54.7139C12.4384 54.5888 12.2352 54.5263 11.9789 54.5263C11.7413 54.5263 11.5569 54.5701 11.4256 54.6576C11.3006 54.7451 11.2381 54.867 11.2381 55.0233C11.2381 55.1984 11.3256 55.3328 11.5006 55.4266C11.6757 55.5141 11.9477 55.6048 12.3165 55.6986C12.6916 55.7923 13.0011 55.8892 13.2449 55.9893C13.4888 56.0893 13.6982 56.2456 13.8733 56.4582C14.0546 56.6645 14.1483 56.9396 14.1546 57.2834C14.1546 57.5835 14.0702 57.8524 13.9014 58.0899C13.7388 58.3275 13.5013 58.5151 13.1887 58.6526C12.8823 58.7839 12.5228 58.8495 12.1102 58.8495ZM18.1582 53.4947C18.5521 53.4947 18.9022 53.5823 19.2086 53.7573C19.5149 53.9261 19.7525 54.1793 19.9213 54.5169C20.0963 54.8483 20.1839 55.2484 20.1839 55.7173V58.7651H18.871V55.8955C18.871 55.4829 18.7678 55.1671 18.5615 54.9483C18.3552 54.7233 18.0738 54.6107 17.7175 54.6107C17.3549 54.6107 17.0673 54.7233 16.8547 54.9483C16.6484 55.1671 16.5452 55.4829 16.5452 55.8955V58.7651H15.2323V51.8255H16.5452V54.2168C16.714 53.9918 16.9391 53.8167 17.2204 53.6917C17.5018 53.5604 17.8144 53.4947 18.1582 53.4947ZM25.4274 54.8639V55.9705H21.4511V54.8639H25.4274ZM30.9417 52.2194V53.2791H28.2127V54.9577H30.304V55.9987H28.2127V58.7651H26.8998V52.2194H30.9417ZM33.1855 54.3763C33.3543 54.1012 33.5732 53.8855 33.842 53.7292C34.1171 53.5729 34.4297 53.4947 34.7798 53.4947V54.8733H34.4328C34.0202 54.8733 33.7076 54.9702 33.495 55.164C33.2887 55.3578 33.1855 55.6954 33.1855 56.1768V58.7651H31.8726V53.5698H33.1855V54.3763ZM40.4937 56.0549C40.4937 56.2425 40.4812 56.4113 40.4562 56.5613H36.6581C36.6894 56.9364 36.8207 57.2303 37.052 57.4429C37.2833 57.6554 37.5678 57.7617 37.9054 57.7617C38.3931 57.7617 38.74 57.5523 38.9464 57.1334H40.3624C40.2124 57.6335 39.9248 58.0462 39.4997 58.3713C39.0745 58.6901 38.5525 58.8495 37.9335 58.8495C37.4334 58.8495 36.9833 58.7401 36.5831 58.5213C36.1893 58.2962 35.8798 57.9805 35.6547 57.5741C35.4359 57.1678 35.3265 56.6989 35.3265 56.1675C35.3265 55.6298 35.4359 55.1578 35.6547 54.7514C35.8735 54.345 36.1799 54.0324 36.5737 53.8136C36.9676 53.5948 37.4209 53.4854 37.9335 53.4854C38.4274 53.4854 38.8682 53.5917 39.2558 53.8042C39.6497 54.0168 39.9529 54.32 40.1655 54.7139C40.3843 55.1015 40.4937 55.5485 40.4937 56.0549ZM39.1339 55.6798C39.1277 55.3422 39.0058 55.0734 38.7682 54.8733C38.5306 54.667 38.2399 54.5638 37.896 54.5638C37.5709 54.5638 37.2958 54.6639 37.0708 54.8639C36.852 55.0577 36.7175 55.3297 36.6675 55.6798H39.1339ZM46.2817 56.0549C46.2817 56.2425 46.2691 56.4113 46.2441 56.5613H42.4461C42.4773 56.9364 42.6086 57.2303 42.84 57.4429C43.0713 57.6554 43.3557 57.7617 43.6933 57.7617C44.181 57.7617 44.528 57.5523 44.7343 57.1334H46.1504C46.0003 57.6335 45.7127 58.0462 45.2876 58.3713C44.8625 58.6901 44.3404 58.8495 43.7215 58.8495C43.2213 58.8495 42.7712 58.7401 42.3711 58.5213C41.9772 58.2962 41.6677 57.9805 41.4426 57.5741C41.2238 57.1678 41.1144 56.6989 41.1144 56.1675C41.1144 55.6298 41.2238 55.1578 41.4426 54.7514C41.6615 54.345 41.9678 54.0324 42.3617 53.8136C42.7556 53.5948 43.2088 53.4854 43.7215 53.4854C44.2154 53.4854 44.6561 53.5917 45.0438 53.8042C45.4376 54.0168 45.7409 54.32 45.9534 54.7139C46.1722 55.1015 46.2817 55.5485 46.2817 56.0549ZM44.9219 55.6798C44.9156 55.3422 44.7937 55.0734 44.5561 54.8733C44.3185 54.667 44.0278 54.5638 43.684 54.5638C43.3589 54.5638 43.0838 54.6639 42.8587 54.8639C42.6399 55.0577 42.5055 55.3297 42.4555 55.6798H44.9219Z" fill="#FB9191"/>
<defs>
<clipPath id="clip0_433_127">
<rect width="26.2582" height="26.2582" fill="white" transform="translate(24.3916 5.62671) rotate(45)"/>
</clipPath>
</defs>
</svg>
