<svg width="59" height="63" viewBox="0 0 59 63" fill="none" xmlns="http://www.w3.org/2000/svg">
<path d="M29.1827 42.7811C39.4426 42.7811 47.7599 34.4638 47.7599 24.2039C47.7599 13.944 39.4426 5.62671 29.1827 5.62671C18.9228 5.62671 10.6055 13.944 10.6055 24.2039C10.6055 34.4638 18.9228 42.7811 29.1827 42.7811Z" stroke="#FB9191" stroke-width="1.87558" stroke-linecap="round" stroke-linejoin="round"/>
<path d="M41.9538 11.432L16.4102 36.9757" stroke="#FB9191" stroke-width="1.87558" stroke-linecap="round" stroke-linejoin="round"/>
<path d="M22.3859 22.7415C22.4947 22.7415 22.5991 22.6982 22.676 22.6213C22.7529 22.5444 22.7962 22.44 22.7962 22.3312C22.7962 22.2224 22.7529 22.118 22.676 22.0411C22.5991 21.9641 22.4947 21.9209 22.3859 21.9209C22.2771 21.9209 22.1727 21.9641 22.0958 22.0411C22.0188 22.118 21.9756 22.2224 21.9756 22.3312C21.9756 22.44 22.0188 22.5444 22.0958 22.6213C22.1727 22.6982 22.2771 22.7415 22.3859 22.7415ZM20.7448 23.562C20.8536 23.562 20.9579 23.5188 21.0349 23.4419C21.1118 23.3649 21.155 23.2606 21.155 23.1518C21.155 23.0429 21.1118 22.9386 21.0349 22.8616C20.9579 22.7847 20.8536 22.7415 20.7448 22.7415C20.6359 22.7415 20.5316 22.7847 20.4546 22.8616C20.3777 22.9386 20.3345 23.0429 20.3345 23.1518C20.3345 23.2606 20.3777 23.3649 20.4546 23.4419C20.5316 23.5188 20.6359 23.562 20.7448 23.562ZM22.7962 24.7929C22.7962 24.9017 22.7529 25.0061 22.676 25.083C22.5991 25.1599 22.4947 25.2032 22.3859 25.2032C22.2771 25.2032 22.1727 25.1599 22.0958 25.083C22.0188 25.0061 21.9756 24.9017 21.9756 24.7929C21.9756 24.6841 22.0188 24.5797 22.0958 24.5028C22.1727 24.4258 22.2771 24.3826 22.3859 24.3826C22.4947 24.3826 22.5991 24.4258 22.676 24.5028C22.7529 24.5797 22.7962 24.6841 22.7962 24.7929ZM20.7448 26.0237C20.8536 26.0237 20.9579 25.9805 21.0349 25.9036C21.1118 25.8266 21.155 25.7223 21.155 25.6135C21.155 25.5046 21.1118 25.4003 21.0349 25.3233C20.9579 25.2464 20.8536 25.2032 20.7448 25.2032C20.6359 25.2032 20.5316 25.2464 20.4546 25.3233C20.3777 25.4003 20.3345 25.5046 20.3345 25.6135C20.3345 25.7223 20.3777 25.8266 20.4546 25.9036C20.5316 25.9805 20.6359 26.0237 20.7448 26.0237ZM24.4373 23.9723C24.4373 24.0811 24.3941 24.1855 24.3171 24.2624C24.2402 24.3394 24.1358 24.3826 24.027 24.3826C23.9182 24.3826 23.8139 24.3394 23.7369 24.2624C23.66 24.1855 23.6167 24.0811 23.6167 23.9723C23.6167 23.8635 23.66 23.7591 23.7369 23.6822C23.8139 23.6053 23.9182 23.562 24.027 23.562C24.1358 23.562 24.2402 23.6053 24.3171 23.6822C24.3941 23.7591 24.4373 23.8635 24.4373 23.9723ZM25.6682 23.562C25.777 23.562 25.8813 23.5188 25.9583 23.4419C26.0352 23.3649 26.0784 23.2606 26.0784 23.1518C26.0784 23.0429 26.0352 22.9386 25.9583 22.8616C25.8813 22.7847 25.777 22.7415 25.6682 22.7415C25.5593 22.7415 25.455 22.7847 25.378 22.8616C25.3011 22.9386 25.2579 23.0429 25.2579 23.1518C25.2579 23.2606 25.3011 23.3649 25.378 23.4419C25.455 23.5188 25.5593 23.562 25.6682 23.562ZM27.7196 25.6135C27.7196 25.7223 27.6764 25.8266 27.5994 25.9036C27.5225 25.9805 27.4181 26.0237 27.3093 26.0237C27.2005 26.0237 27.0961 25.9805 27.0192 25.9036C26.9422 25.8266 26.899 25.7223 26.899 25.6135C26.899 25.5046 26.9422 25.4003 27.0192 25.3233C27.0961 25.2464 27.2005 25.2032 27.3093 25.2032C27.4181 25.2032 27.5225 25.2464 27.5994 25.3233C27.6764 25.4003 27.7196 25.5046 27.7196 25.6135ZM25.6682 26.8443C25.777 26.8443 25.8813 26.8011 25.9583 26.7241C26.0352 26.6472 26.0784 26.5428 26.0784 26.434C26.0784 26.3252 26.0352 26.2208 25.9583 26.1439C25.8813 26.067 25.777 26.0237 25.6682 26.0237C25.5593 26.0237 25.455 26.067 25.378 26.1439C25.3011 26.2208 25.2579 26.3252 25.2579 26.434C25.2579 26.5428 25.3011 26.6472 25.378 26.7241C25.455 26.8011 25.5593 26.8443 25.6682 26.8443ZM24.4373 27.2546C24.4373 27.3634 24.3941 27.4678 24.3171 27.5447C24.2402 27.6216 24.1358 27.6649 24.027 27.6649C23.9182 27.6649 23.8139 27.6216 23.7369 27.5447C23.66 27.4678 23.6167 27.3634 23.6167 27.2546C23.6167 27.1458 23.66 27.0414 23.7369 26.9645C23.8139 26.8875 23.9182 26.8443 24.027 26.8443C24.1358 26.8443 24.2402 26.8875 24.3171 26.9645C24.3941 27.0414 24.4373 27.1458 24.4373 27.2546ZM22.3859 28.4854C22.4947 28.4854 22.5991 28.4422 22.676 28.3653C22.7529 28.2883 22.7962 28.184 22.7962 28.0752C22.7962 27.9663 22.7529 27.862 22.676 27.785C22.5991 27.7081 22.4947 27.6649 22.3859 27.6649C22.2771 27.6649 22.1727 27.7081 22.0958 27.785C22.0188 27.862 21.9756 27.9663 21.9756 28.0752C21.9756 28.184 22.0188 28.2883 22.0958 28.3653C22.1727 28.4422 22.2771 28.4854 22.3859 28.4854ZM21.155 28.8957C21.155 29.0045 21.1118 29.1089 21.0349 29.1858C20.9579 29.2628 20.8536 29.306 20.7448 29.306C20.6359 29.306 20.5316 29.2628 20.4546 29.1858C20.3777 29.1089 20.3345 29.0045 20.3345 28.8957C20.3345 28.7869 20.3777 28.6826 20.4546 28.6056C20.5316 28.5287 20.6359 28.4854 20.7448 28.4854C20.8536 28.4854 20.9579 28.5287 21.0349 28.6056C21.1118 28.6826 21.155 28.7869 21.155 28.8957ZM24.027 30.9471C24.1358 30.9471 24.2402 30.9039 24.3171 30.827C24.3941 30.75 24.4373 30.6457 24.4373 30.5369C24.4373 30.428 24.3941 30.3237 24.3171 30.2467C24.2402 30.1698 24.1358 30.1266 24.027 30.1266C23.9182 30.1266 23.8139 30.1698 23.7369 30.2467C23.66 30.3237 23.6167 30.428 23.6167 30.5369C23.6167 30.6457 23.66 30.75 23.7369 30.827C23.8139 30.9039 23.9182 30.9471 24.027 30.9471ZM26.0784 29.7163C26.0784 29.8251 26.0352 29.9295 25.9583 30.0064C25.8813 30.0834 25.777 30.1266 25.6682 30.1266C25.5593 30.1266 25.455 30.0834 25.378 30.0064C25.3011 29.9295 25.2579 29.8251 25.2579 29.7163C25.2579 29.6075 25.3011 29.5031 25.378 29.4262C25.455 29.3492 25.5593 29.306 25.6682 29.306C25.777 29.306 25.8813 29.3492 25.9583 29.4262C26.0352 29.5031 26.0784 29.6075 26.0784 29.7163ZM27.3093 29.306C27.4181 29.306 27.5225 29.2628 27.5994 29.1858C27.6764 29.1089 27.7196 29.0045 27.7196 28.8957C27.7196 28.7869 27.6764 28.6826 27.5994 28.6056C27.5225 28.5287 27.4181 28.4854 27.3093 28.4854C27.2005 28.4854 27.0961 28.5287 27.0192 28.6056C26.9422 28.6826 26.899 28.7869 26.899 28.8957C26.899 29.0045 26.9422 29.1089 27.0192 29.1858C27.0961 29.2628 27.2005 29.306 27.3093 29.306ZM27.7196 31.3574C27.7196 31.4662 27.6764 31.5706 27.5994 31.6475C27.5225 31.7245 27.4181 31.7677 27.3093 31.7677C27.2005 31.7677 27.0961 31.7245 27.0192 31.6475C26.9422 31.5706 26.899 31.4662 26.899 31.3574C26.899 31.2486 26.9422 31.1443 27.0192 31.0673C27.0961 30.9904 27.2005 30.9471 27.3093 30.9471C27.4181 30.9471 27.5225 30.9904 27.5994 31.0673C27.6764 31.1443 27.7196 31.2486 27.7196 31.3574Z" fill="#FB9191"/>
<path d="M38.9745 33.0331L29.6037 36.5041C29.2992 36.6514 28.9673 36.7338 28.6293 36.7459C28.2912 36.7581 27.9543 36.6997 27.64 36.5746L19.9546 33.5549C19.3409 33.3138 18.814 32.8933 18.4427 32.3484C18.0714 31.8035 17.8728 31.1594 17.8728 30.5V22.5798L17.7415 22.3829C17.2919 21.7086 17.0521 20.9163 17.0522 20.1058V18.9554C17.0522 17.805 17.8219 16.8908 18.8132 16.5938L27.9141 13.1622C28.8465 12.8108 29.875 12.8108 30.8074 13.1622L38.4797 16.0506C39.4167 16.4031 40.2239 17.0329 40.7937 17.8559C41.3636 18.679 41.669 19.6562 41.6693 20.6573V21.399C41.6693 22.218 41.3657 22.9836 40.8487 23.5703V30.34C40.8487 30.9265 40.6691 31.499 40.3341 31.9805C39.999 32.4619 39.5246 32.8293 38.9745 33.0331ZM28.4934 14.6975L21.8509 17.2027L28.6165 19.7399C29.7334 20.1588 30.661 20.9676 31.2281 22.017C31.7952 23.0664 31.9634 24.2856 31.7018 25.4494L38.9237 22.9499C39.2461 22.8383 39.5258 22.629 39.7238 22.351C39.9218 22.0731 40.0281 21.7403 40.0281 21.399V20.6573C40.0281 19.99 39.8247 19.3385 39.445 18.7898C39.0653 18.2411 38.5273 17.8211 37.9029 17.5859L30.2289 14.6975C29.6696 14.4868 29.0527 14.4868 28.4934 14.6975ZM31.0019 34.2352L38.4042 31.4945C38.64 31.4072 38.8434 31.2497 38.9871 31.0433C39.1307 30.8369 39.2076 30.5914 39.2076 30.34V24.5878L31.0019 27.4286V34.2352ZM28.6977 35.0886L28.9423 34.9983C29.0696 34.9273 29.1755 34.8234 29.2491 34.6976C29.3227 34.5718 29.3612 34.4285 29.3608 34.2828V26.8443C29.3607 26.6822 29.4087 26.5238 29.4986 26.3889L29.6274 26.1961C29.9032 25.7826 30.082 25.3121 30.1504 24.8198C30.2188 24.3275 30.1751 23.826 30.0225 23.353C29.8699 22.88 29.6124 22.4475 29.2692 22.088C28.9259 21.7285 28.5059 21.4512 28.0405 21.2768L19.8011 18.1873C19.6457 18.1282 19.4759 18.1182 19.3146 18.1586L19.148 18.2218V18.2202C19.0111 18.288 18.8959 18.3928 18.8155 18.5228C18.7352 18.6527 18.6929 18.8026 18.6934 18.9554V20.1067C18.6934 20.5926 18.8373 21.0677 19.1069 21.4721L19.3761 21.8758C19.466 22.0107 19.514 22.1691 19.5139 22.3312V30.5C19.5139 30.8298 19.6132 31.152 19.7989 31.4245C19.9847 31.6971 20.2482 31.9073 20.5553 32.0279L28.2399 35.0475C28.3941 35.1075 28.5517 35.1181 28.6977 35.0886Z" fill="#FB9191"/>
<path d="M5.56558 54.1887C5.41554 53.9136 5.20922 53.7042 4.94664 53.5604C4.68406 53.4166 4.37771 53.3447 4.02761 53.3447C3.63998 53.3447 3.29613 53.4322 2.99603 53.6073C2.69594 53.7823 2.46149 54.0324 2.29269 54.3575C2.12389 54.6826 2.03949 55.0577 2.03949 55.4829C2.03949 55.9205 2.12389 56.3019 2.29269 56.627C2.46775 56.9521 2.70845 57.2022 3.01479 57.3772C3.32114 57.5523 3.6775 57.6398 4.08387 57.6398C4.58403 57.6398 4.99353 57.5085 5.31238 57.2459C5.63123 56.9771 5.84067 56.6051 5.9407 56.1299H3.69V55.1265H7.23485V56.2706C7.14733 56.727 6.95977 57.149 6.67218 57.5366C6.38459 57.9243 6.0126 58.2368 5.55621 58.4744C5.10607 58.7057 4.59966 58.8214 4.03698 58.8214C3.40554 58.8214 2.83348 58.6807 2.32082 58.3994C1.81442 58.1118 1.41429 57.7148 1.12045 57.2084C0.832862 56.702 0.689067 56.1268 0.689067 55.4829C0.689067 54.8389 0.832862 54.2637 1.12045 53.7573C1.41429 53.2447 1.81442 52.8477 2.32082 52.5663C2.83348 52.2787 3.40241 52.1349 4.02761 52.1349C4.76533 52.1349 5.40616 52.3163 5.95008 52.6789C6.494 53.0352 6.86911 53.5385 7.07543 54.1887H5.56558ZM9.51911 51.8255V58.7651H8.2062V51.8255H9.51911ZM15.7209 53.5698V58.7651H14.3986V58.1087C14.2298 58.3338 14.0079 58.5119 13.7328 58.6432C13.464 58.7683 13.1701 58.8308 12.8513 58.8308C12.4449 58.8308 12.0854 58.7464 11.7728 58.5776C11.4602 58.4025 11.2133 58.1493 11.032 57.818C10.8569 57.4804 10.7694 57.0802 10.7694 56.6176V53.5698H12.0823V56.43C12.0823 56.8427 12.1854 57.1615 12.3918 57.3866C12.5981 57.6054 12.8794 57.7148 13.2358 57.7148C13.5984 57.7148 13.8828 57.6054 14.0892 57.3866C14.2955 57.1615 14.3986 56.8427 14.3986 56.43V53.5698H15.7209ZM18.5449 54.6482V57.1615C18.5449 57.3366 18.5856 57.4647 18.6668 57.546C18.7544 57.621 18.8981 57.6585 19.0982 57.6585H19.7078V58.7651H18.8825C17.7759 58.7651 17.2226 58.2275 17.2226 57.1521V54.6482H16.6037V53.5698H17.2226V52.285H18.5449V53.5698H19.7078V54.6482H18.5449ZM25.4817 56.0549C25.4817 56.2425 25.4692 56.4113 25.4442 56.5613H21.6461C21.6774 56.9364 21.8087 57.2303 22.04 57.4429C22.2713 57.6554 22.5558 57.7617 22.8934 57.7617C23.3811 57.7617 23.728 57.5523 23.9344 57.1334H25.3504C25.2004 57.6335 24.9128 58.0462 24.4877 58.3713C24.0625 58.6901 23.5405 58.8495 22.9215 58.8495C22.4214 58.8495 21.9712 58.7401 21.5711 58.5213C21.1773 58.2962 20.8678 57.9805 20.6427 57.5741C20.4239 57.1678 20.3145 56.6989 20.3145 56.1675C20.3145 55.6298 20.4239 55.1578 20.6427 54.7514C20.8615 54.345 21.1679 54.0324 21.5617 53.8136C21.9556 53.5948 22.4089 53.4854 22.9215 53.4854C23.4154 53.4854 23.8562 53.5917 24.2438 53.8042C24.6377 54.0168 24.9409 54.32 25.1535 54.7139C25.3723 55.1015 25.4817 55.5485 25.4817 56.0549ZM24.1219 55.6798C24.1157 55.3422 23.9938 55.0734 23.7562 54.8733C23.5186 54.667 23.2279 54.5638 22.884 54.5638C22.5589 54.5638 22.2838 54.6639 22.0588 54.8639C21.84 55.0577 21.7055 55.3297 21.6555 55.6798H24.1219ZM29.319 53.4947C29.938 53.4947 30.4381 53.6917 30.8195 54.0856C31.2009 54.4732 31.3916 55.0171 31.3916 55.7173V58.7651H30.0786V55.8955C30.0786 55.4829 29.9755 55.1671 29.7692 54.9483C29.5629 54.7233 29.2815 54.6107 28.9252 54.6107C28.5626 54.6107 28.275 54.7233 28.0624 54.9483C27.8561 55.1671 27.7529 55.4829 27.7529 55.8955V58.7651H26.44V53.5698H27.7529V54.2168C27.928 53.9918 28.1499 53.8167 28.4188 53.6917C28.6938 53.5604 28.9939 53.4947 29.319 53.4947ZM36.6351 54.8639V55.9705H32.6588V54.8639H36.6351ZM42.1493 52.2194V53.2791H39.4204V54.9577H41.5116V55.9987H39.4204V58.7651H38.1075V52.2194H42.1493ZM44.3932 54.3763C44.562 54.1012 44.7809 53.8855 45.0497 53.7292C45.3248 53.5729 45.6374 53.4947 45.9875 53.4947V54.8733H45.6405C45.2279 54.8733 44.9153 54.9702 44.7027 55.164C44.4964 55.3578 44.3932 55.6954 44.3932 56.1768V58.7651H43.0803V53.5698H44.3932V54.3763ZM51.7014 56.0549C51.7014 56.2425 51.6889 56.4113 51.6639 56.5613H47.8658C47.8971 56.9364 48.0284 57.2303 48.2597 57.4429C48.491 57.6554 48.7755 57.7617 49.1131 57.7617C49.6008 57.7617 49.9477 57.5523 50.1541 57.1334H51.5701C51.4201 57.6335 51.1325 58.0462 50.7074 58.3713C50.2822 58.6901 49.7602 58.8495 49.1412 58.8495C48.6411 58.8495 48.1909 58.7401 47.7908 58.5213C47.397 58.2962 47.0875 57.9805 46.8624 57.5741C46.6436 57.1678 46.5342 56.6989 46.5342 56.1675C46.5342 55.6298 46.6436 55.1578 46.8624 54.7514C47.0812 54.345 47.3876 54.0324 47.7814 53.8136C48.1753 53.5948 48.6286 53.4854 49.1412 53.4854C49.6351 53.4854 50.0759 53.5917 50.4635 53.8042C50.8574 54.0168 51.1606 54.32 51.3732 54.7139C51.592 55.1015 51.7014 55.5485 51.7014 56.0549ZM50.3416 55.6798C50.3354 55.3422 50.2135 55.0734 49.9759 54.8733C49.7383 54.667 49.4476 54.5638 49.1037 54.5638C48.7786 54.5638 48.5035 54.6639 48.2785 54.8639C48.0597 55.0577 47.9252 55.3297 47.8752 55.6798H50.3416ZM57.4893 56.0549C57.4893 56.2425 57.4768 56.4113 57.4518 56.5613H53.6538C53.685 56.9364 53.8163 57.2303 54.0477 57.4429C54.279 57.6554 54.5634 57.7617 54.901 57.7617C55.3887 57.7617 55.7357 57.5523 55.942 57.1334H57.3581C57.208 57.6335 56.9204 58.0462 56.4953 58.3713C56.0702 58.6901 55.5481 58.8495 54.9292 58.8495C54.429 58.8495 53.9789 58.7401 53.5788 58.5213C53.1849 58.2962 52.8754 57.9805 52.6503 57.5741C52.4315 57.1678 52.3221 56.6989 52.3221 56.1675C52.3221 55.6298 52.4315 55.1578 52.6503 54.7514C52.8692 54.345 53.1755 54.0324 53.5694 53.8136C53.9633 53.5948 54.4165 53.4854 54.9292 53.4854C55.4231 53.4854 55.8638 53.5917 56.2515 53.8042C56.6453 54.0168 56.9486 54.32 57.1611 54.7139C57.3799 55.1015 57.4893 55.5485 57.4893 56.0549ZM56.1296 55.6798C56.1233 55.3422 56.0014 55.0734 55.7638 54.8733C55.5262 54.667 55.2355 54.5638 54.8917 54.5638C54.5666 54.5638 54.2915 54.6639 54.0664 54.8639C53.8476 55.0577 53.7132 55.3297 53.6632 55.6798H56.1296Z" fill="#FB9191"/>
</svg>
