<svg width="60" height="63" viewBox="0 0 60 63" fill="none" xmlns="http://www.w3.org/2000/svg">
<path d="M29.8213 42.7811C40.0813 42.7811 48.3986 34.4638 48.3986 24.2039C48.3986 13.944 40.0813 5.62671 29.8213 5.62671C19.5614 5.62671 11.2441 13.944 11.2441 24.2039C11.2441 34.4638 19.5614 42.7811 29.8213 42.7811Z" stroke="#FB9191" stroke-width="1.87558" stroke-linecap="round" stroke-linejoin="round"/>
<path d="M42.593 11.432L17.0493 36.9757" stroke="#FB9191" stroke-width="1.87558" stroke-linecap="round" stroke-linejoin="round"/>
<g clip-path="url(#clip0_433_117)">
<path d="M28.4716 13.4771C28.4669 13.2032 28.7159 13.0483 29.0274 13.0141C29.5975 13.0101 30.1675 13.0157 30.7374 13.0309C31.1209 13.0512 31.1447 13.3175 31.1639 13.5374L31.1662 13.563C31.1871 13.7869 31.1789 14.7571 31.1737 14.9758C31.1685 15.1957 30.9962 15.4203 30.684 15.4145C30.08 15.4094 29.476 15.4069 28.8719 15.4069C28.5662 15.4064 28.4994 15.1052 28.4733 14.876C28.4519 14.6921 28.4635 13.867 28.4716 13.4771ZM31.7615 18.0586C31.8096 17.6971 32.0626 17.6078 32.3649 17.5898C32.7044 17.5869 33.461 17.5764 33.7592 17.5613C34.058 17.5468 34.1132 17.7749 34.1248 18.0093C34.1352 18.2054 34.0406 18.7618 33.9611 19.2266L33.9182 19.4854C33.837 19.9774 33.4604 20.0476 33.2776 20.0807C33.0954 20.1143 32.0139 20.1201 31.7864 20.1016C31.559 20.083 31.5033 19.8103 31.5253 19.6316C31.5364 19.5428 31.5636 19.4099 31.5926 19.2695C31.6222 19.1274 31.6524 18.9777 31.6698 18.8593C31.6855 18.7473 31.6965 18.6423 31.7081 18.5228C31.7215 18.3934 31.7365 18.2472 31.7615 18.0586ZM26.0375 17.7308C25.7051 17.7151 25.4445 17.7412 25.4556 18.1178C25.466 18.4961 25.5954 19.3995 25.6621 19.6496C25.7283 19.9002 25.9174 20.253 26.2551 20.2426C26.4135 20.2385 26.6729 20.2484 26.9276 20.2582C27.2119 20.2698 27.4887 20.2809 27.6076 20.2698L27.6691 20.2652C27.8867 20.2495 28.1559 20.2298 28.0765 19.8625C27.9888 19.4593 27.8345 18.7235 27.8293 18.463C27.8241 18.2025 27.7417 17.7441 27.3744 17.7435L27.0843 17.7435C26.7326 17.7458 26.3039 17.7464 26.0375 17.7308ZM27.9935 29.8094C27.9453 30.1709 27.6912 30.2602 27.39 30.2782C27.05 30.2817 26.294 30.2916 25.9958 30.3066C25.6969 30.3212 25.6407 30.0931 25.6296 29.8593C25.6203 29.662 25.7143 29.1062 25.7933 28.642L25.8362 28.3832C25.918 27.8906 26.2946 27.8204 26.4773 27.7873C26.6595 27.7536 27.7411 27.7478 27.968 27.767C28.1954 27.7856 28.2517 28.0577 28.2291 28.237C28.2108 28.3584 28.1883 28.4792 28.1617 28.599C28.1323 28.7348 28.1068 28.8714 28.0852 29.0087C28.0695 29.1207 28.0585 29.2257 28.0463 29.3446C28.0329 29.474 28.0184 29.6208 27.9935 29.8094ZM31.2004 34.8545C31.2051 35.1284 30.9561 35.2833 30.644 35.3181C30.0741 35.3219 29.5043 35.3161 28.9346 35.3007C28.5511 35.2804 28.5273 35.014 28.5076 34.7947L28.5052 34.7692C28.4849 34.5446 28.4931 33.5745 28.4983 33.3558C28.5035 33.1358 28.6758 32.9113 28.988 32.9171C29.2984 32.9223 30.4867 32.9246 30.7977 32.9246L30.7989 32.9246C31.1058 32.9252 31.1726 33.2264 31.1987 33.4555C31.2196 33.6401 31.2085 34.4646 31.2004 34.8545ZM33.4708 30.3154C33.8033 30.331 34.0633 30.3055 34.0522 29.9278C34.0412 29.55 33.913 28.6466 33.8463 28.3965C33.7789 28.1459 33.5904 27.7937 33.2533 27.8035C33.0949 27.8076 32.8343 27.7977 32.5808 27.7879C32.2965 27.7763 32.0197 27.7652 31.9007 27.7763C31.8801 27.7778 31.8594 27.7792 31.8387 27.7803C31.6205 27.7966 31.3518 27.8157 31.4313 28.1842C31.5184 28.5868 31.6733 29.322 31.6785 29.5825C31.6837 29.843 31.7661 30.3026 32.1334 30.3032L32.4224 30.302L32.4235 30.302C32.7751 30.3008 33.2045 30.2985 33.4708 30.3154ZM31.1818 24.9987C31.183 25.2737 30.9068 25.478 30.5604 25.4878L30.2587 25.4878C29.8301 25.4903 29.4015 25.488 28.9729 25.4809C28.5546 25.4699 28.5128 25.1124 28.4971 24.8519C28.4845 24.3263 28.4822 23.8005 28.4902 23.2749C28.4948 22.9836 28.7652 22.8258 29.0814 22.7962C29.3286 22.7718 29.9639 22.7956 30.4113 22.8124L30.7298 22.8234C31.1082 22.8339 31.19 23.2221 31.1853 23.4309C31.1807 23.641 31.1813 24.7231 31.1818 24.9987Z" fill="#FB9191"/>
<path d="M26.1922 11.0047C23.4158 12.6496 22.5953 14.8661 22.3917 16.7199C22.1608 18.825 22.8721 20.7224 23.8713 21.9107C24.7022 22.8994 25.0253 23.4906 25.0567 24.2646C25.0741 24.7056 25.0451 25.0027 24.9163 25.3253C24.7799 25.6671 24.506 26.0999 23.9241 26.748C23.1912 27.5644 22.7224 28.646 22.4961 29.7043C22.2704 30.7574 22.2646 31.8784 22.5553 32.7946L22.6464 33.0865C22.8373 33.6998 23.0311 34.3218 23.3351 34.9136C23.703 35.6308 24.2235 36.2951 25.07 36.985C26.7597 38.359 28.6123 38.8203 29.8668 38.8679L29.8981 38.869L29.9294 38.8679C30.3495 38.8516 30.9501 38.7524 31.5674 38.5841C32.1848 38.4159 32.8787 38.1606 33.4607 37.8014C34.7912 36.9827 36.869 35.1497 37.2177 32.4024C37.5502 29.7838 36.7628 27.9207 35.759 26.7266C35.3273 26.2125 35.0778 25.8875 34.9165 25.5916C34.772 25.3241 34.692 25.063 34.6589 24.6725C34.5951 23.9171 34.8248 22.9992 35.5849 22.1718C36.6444 21.0171 37.8107 18.6765 37.0912 15.838C36.3839 13.0442 34.3908 11.3783 33.0174 10.7616C31.7409 10.1883 29.0446 9.31505 26.1922 11.0047ZM24.0233 16.8986C24.1829 15.4452 24.7857 13.7457 27.0289 12.417C29.1949 11.1329 31.2506 11.7671 32.3444 12.2586C33.34 12.7053 34.9351 14.0103 35.5002 16.2407C36.0538 18.4258 35.1509 20.2176 34.3763 21.0618C33.3006 22.2327 32.9217 23.6061 33.0238 24.8106C33.0731 25.3996 33.2095 25.8841 33.4735 26.3732C33.7236 26.8333 34.0763 27.2743 34.5028 27.782C35.2171 28.632 35.8634 30.0385 35.5896 32.1958C35.3325 34.2249 33.7502 35.6957 32.6002 36.4036C32.1987 36.652 31.6666 36.8556 31.1346 37.0013C30.6205 37.1417 30.1627 37.213 29.8975 37.2264C28.9448 37.1834 27.4664 36.8179 26.1057 35.7114C25.4199 35.1532 25.0509 34.6624 24.795 34.1639C24.56 33.7085 24.4126 33.2361 24.2182 32.6124L24.1196 32.3002C23.9386 31.7247 23.9171 30.9048 24.101 30.0478C24.2832 29.1949 24.6494 28.397 25.1455 27.8441C25.7843 27.1321 26.2015 26.5328 26.4405 25.9328C26.6883 25.3125 26.7185 24.7578 26.6964 24.1985C26.6424 22.8588 26.0146 21.9107 25.128 20.8546C24.4091 20 23.8417 18.5471 24.0233 16.8986Z" fill="#FB9191"/>
</g>
<path d="M5.42044 54.245C5.42044 54.5951 5.33603 54.9233 5.16723 55.2297C5.00468 55.536 4.74523 55.783 4.38887 55.9705C4.03876 56.1581 3.59487 56.2519 3.0572 56.2519H1.95998V58.7651H0.647076V52.2194H3.0572C3.56361 52.2194 3.99499 52.3069 4.35135 52.4819C4.70771 52.657 4.97342 52.8977 5.14848 53.204C5.32978 53.5104 5.42044 53.8574 5.42044 54.245ZM3.00093 55.1922C3.36355 55.1922 3.63238 55.1109 3.80743 54.9483C3.98249 54.7795 4.07002 54.5451 4.07002 54.245C4.07002 53.6073 3.71366 53.2884 3.00093 53.2884H1.95998V55.1922H3.00093ZM11.1822 56.0549C11.1822 56.2425 11.1697 56.4113 11.1447 56.5613H7.34665C7.3779 56.9364 7.5092 57.2303 7.74052 57.4429C7.97184 57.6554 8.2563 57.7617 8.59391 57.7617C9.08156 57.7617 9.42854 57.5523 9.63486 57.1334H11.0509C10.9009 57.6335 10.6133 58.0462 10.1882 58.3713C9.76302 58.6901 9.24098 58.8495 8.62204 58.8495C8.12189 58.8495 7.67175 58.7401 7.27162 58.5213C6.87775 58.2962 6.56828 57.9805 6.34321 57.5741C6.12439 57.1678 6.01498 56.6989 6.01498 56.1675C6.01498 55.6298 6.12439 55.1578 6.34321 54.7514C6.56203 54.345 6.86837 54.0324 7.26224 53.8136C7.65612 53.5948 8.10938 53.4854 8.62204 53.4854C9.11595 53.4854 9.55671 53.5917 9.94433 53.8042C10.3382 54.0168 10.6414 54.32 10.854 54.7139C11.0728 55.1015 11.1822 55.5485 11.1822 56.0549ZM9.82242 55.6798C9.81616 55.3422 9.69425 55.0734 9.45668 54.8733C9.2191 54.667 8.92839 54.5638 8.58453 54.5638C8.25943 54.5638 7.98434 54.6639 7.75927 54.8639C7.54046 55.0577 7.40604 55.3297 7.35602 55.6798H9.82242ZM11.8029 56.1487C11.8029 55.6235 11.9061 55.1578 12.1124 54.7514C12.325 54.345 12.6094 54.0324 12.9658 53.8136C13.3284 53.5948 13.7316 53.4854 14.1755 53.4854C14.5631 53.4854 14.9008 53.5635 15.1883 53.7198C15.4822 53.8761 15.7166 54.0731 15.8917 54.3106V53.5698H17.214V58.7651H15.8917V58.0055C15.7229 58.2494 15.4884 58.4525 15.1883 58.6151C14.8945 58.7714 14.5538 58.8495 14.1661 58.8495C13.7285 58.8495 13.3284 58.737 12.9658 58.5119C12.6094 58.2869 12.325 57.9711 12.1124 57.5648C11.9061 57.1521 11.8029 56.6801 11.8029 56.1487ZM15.8917 56.1675C15.8917 55.8486 15.8292 55.5766 15.7041 55.3516C15.5791 55.1203 15.4103 54.9452 15.1977 54.8264C14.9852 54.7014 14.757 54.6389 14.5131 54.6389C14.2693 54.6389 14.0442 54.6982 13.8379 54.817C13.6316 54.9358 13.4628 55.1109 13.3315 55.3422C13.2065 55.5673 13.144 55.8361 13.144 56.1487C13.144 56.4613 13.2065 56.7364 13.3315 56.974C13.4628 57.2053 13.6316 57.3835 13.8379 57.5085C14.0505 57.6335 14.2756 57.6961 14.5131 57.6961C14.757 57.6961 14.9852 57.6367 15.1977 57.5179C15.4103 57.3928 15.5791 57.2178 15.7041 56.9927C15.8292 56.7614 15.8917 56.4863 15.8917 56.1675ZM21.3753 53.4947C21.9942 53.4947 22.4944 53.6917 22.8757 54.0856C23.2571 54.4732 23.4478 55.0171 23.4478 55.7173V58.7651H22.1349V55.8955C22.1349 55.4829 22.0317 55.1671 21.8254 54.9483C21.6191 54.7233 21.3378 54.6107 20.9814 54.6107C20.6188 54.6107 20.3312 54.7233 20.1186 54.9483C19.9123 55.1671 19.8092 55.4829 19.8092 55.8955V58.7651H18.4963V53.5698H19.8092V54.2168C19.9842 53.9918 20.2062 53.8167 20.475 53.6917C20.7501 53.5604 21.0502 53.4947 21.3753 53.4947ZM29.601 53.5698V58.7651H28.2787V58.1087C28.1099 58.3338 27.8879 58.5119 27.6128 58.6432C27.344 58.7683 27.0502 58.8308 26.7313 58.8308C26.3249 58.8308 25.9654 58.7464 25.6529 58.5776C25.3403 58.4025 25.0933 58.1493 24.912 57.818C24.7369 57.4804 24.6494 57.0802 24.6494 56.6176V53.5698H25.9623V56.43C25.9623 56.8427 26.0655 57.1615 26.2718 57.3866C26.4781 57.6054 26.7594 57.7148 27.1158 57.7148C27.4784 57.7148 27.7629 57.6054 27.9692 57.3866C28.1755 57.1615 28.2787 56.8427 28.2787 56.43V53.5698H29.601ZM32.425 54.6482V57.1615C32.425 57.3366 32.4656 57.4647 32.5469 57.546C32.6344 57.621 32.7782 57.6585 32.9782 57.6585H33.5878V58.7651H32.7626C31.656 58.7651 31.1027 58.2275 31.1027 57.1521V54.6482H30.4837V53.5698H31.1027V52.285H32.425V53.5698H33.5878V54.6482H32.425ZM38.5271 54.8639V55.9705H34.5509V54.8639H38.5271ZM44.0414 52.2194V53.2791H41.3124V54.9577H43.4037V55.9987H41.3124V58.7651H39.9995V52.2194H44.0414ZM46.2853 54.3763C46.4541 54.1012 46.6729 53.8855 46.9417 53.7292C47.2168 53.5729 47.5294 53.4947 47.8795 53.4947V54.8733H47.5326C47.1199 54.8733 46.8073 54.9702 46.5948 55.164C46.3884 55.3578 46.2853 55.6954 46.2853 56.1768V58.7651H44.9724V53.5698H46.2853V54.3763ZM53.5935 56.0549C53.5935 56.2425 53.581 56.4113 53.556 56.5613H49.7579C49.7892 56.9364 49.9205 57.2303 50.1518 57.4429C50.3831 57.6554 50.6676 57.7617 51.0052 57.7617C51.4928 57.7617 51.8398 57.5523 52.0461 57.1334H53.4622C53.3121 57.6335 53.0245 58.0462 52.5994 58.3713C52.1743 58.6901 51.6522 58.8495 51.0333 58.8495C50.5331 58.8495 50.083 58.7401 49.6829 58.5213C49.289 58.2962 48.9795 57.9805 48.7545 57.5741C48.5356 57.1678 48.4262 56.6989 48.4262 56.1675C48.4262 55.6298 48.5356 55.1578 48.7545 54.7514C48.9733 54.345 49.2796 54.0324 49.6735 53.8136C50.0674 53.5948 50.5206 53.4854 51.0333 53.4854C51.5272 53.4854 51.968 53.5917 52.3556 53.8042C52.7495 54.0168 53.0527 54.32 53.2652 54.7139C53.4841 55.1015 53.5935 55.5485 53.5935 56.0549ZM52.2337 55.6798C52.2274 55.3422 52.1055 55.0734 51.8679 54.8733C51.6304 54.667 51.3396 54.5638 50.9958 54.5638C50.6707 54.5638 50.3956 54.6639 50.1705 54.8639C49.9517 55.0577 49.8173 55.3297 49.7673 55.6798H52.2337ZM59.3814 56.0549C59.3814 56.2425 59.3689 56.4113 59.3439 56.5613H55.5458C55.5771 56.9364 55.7084 57.2303 55.9397 57.4429C56.171 57.6554 56.4555 57.7617 56.7931 57.7617C57.2808 57.7617 57.6277 57.5523 57.834 57.1334H59.2501C59.1001 57.6335 58.8125 58.0462 58.3873 58.3713C57.9622 58.6901 57.4402 58.8495 56.8212 58.8495C56.3211 58.8495 55.8709 58.7401 55.4708 58.5213C55.0769 58.2962 54.7675 57.9805 54.5424 57.5741C54.3236 57.1678 54.2142 56.6989 54.2142 56.1675C54.2142 55.6298 54.3236 55.1578 54.5424 54.7514C54.7612 54.345 55.0676 54.0324 55.4614 53.8136C55.8553 53.5948 56.3086 53.4854 56.8212 53.4854C57.3151 53.4854 57.7559 53.5917 58.1435 53.8042C58.5374 54.0168 58.8406 54.32 59.0532 54.7139C59.272 55.1015 59.3814 55.5485 59.3814 56.0549ZM58.0216 55.6798C58.0154 55.3422 57.8934 55.0734 57.6559 54.8733C57.4183 54.667 57.1276 54.5638 56.7837 54.5638C56.4586 54.5638 56.1835 54.6639 55.9585 54.8639C55.7396 55.0577 55.6052 55.3297 55.5552 55.6798H58.0216Z" fill="#FB9191"/>
<defs>
<clipPath id="clip0_433_117">
<rect width="26.2582" height="26.2582" fill="white" transform="translate(11.2441 24.3824) rotate(-45)"/>
</clipPath>
</defs>
</svg>
