<svg width="66" height="63" viewBox="0 0 66 63" fill="none" xmlns="http://www.w3.org/2000/svg">
<path d="M32.8795 42.7811C43.1394 42.7811 51.4567 34.4638 51.4567 24.2039C51.4567 13.944 43.1394 5.62671 32.8795 5.62671C22.6195 5.62671 14.3022 13.944 14.3022 24.2039C14.3022 34.4638 22.6195 42.7811 32.8795 42.7811Z" stroke="#FB9191" stroke-width="1.87558" stroke-linecap="round" stroke-linejoin="round"/>
<path d="M45.6506 11.432L20.1069 36.9757" stroke="#FB9191" stroke-width="1.87558" stroke-linecap="round" stroke-linejoin="round"/>
<g clip-path="url(#clip0_433_147)">
<path d="M33.5594 10.597L32.8782 10.1375L32.4206 10.8186C30.4632 13.7205 31.2175 17.6692 34.1247 19.6292L34.2117 19.6879C34.5023 21.7534 34.1911 23.8589 33.3155 25.7521L31.8774 24.7793C32.4603 23.8372 32.6563 22.7062 32.4242 21.623C32.1921 20.5398 31.55 19.5884 30.6323 18.9679L27.1404 16.6074L26.6808 17.2868C26.044 18.2291 25.8077 19.3858 26.0238 20.5024C26.2398 21.619 26.8906 22.6041 27.833 23.2408L30.2217 24.8558C30.2388 24.8706 30.2573 24.8846 30.2761 24.8974L32.9032 26.6742C32.069 28.768 31.8517 31.0569 32.2771 33.2703L32.3988 33.9012L30.9001 32.8875C31.6253 31.7332 31.8738 30.3424 31.5932 29.0084C31.3127 27.6743 30.525 26.5014 29.3964 25.737L25.112 22.8457L24.6529 23.5277C23.0348 25.9306 23.6598 29.1958 26.0681 30.8185L29.6133 33.2107C29.6332 33.2286 29.6544 33.2457 29.6774 33.2609L32.6655 35.2822L33.0824 37.4387L34.0525 37.2481L33.5755 34.7691L36.4383 33.4915C36.4564 33.483 36.474 33.4735 36.491 33.4629L39.9089 31.9387C40.5396 31.6581 41.1088 31.256 41.5839 30.7553C42.0591 30.2547 42.431 29.6653 42.6783 29.0209C42.9256 28.3764 43.0435 27.6896 43.0253 26.9996C43.0071 26.3095 42.853 25.6299 42.572 24.9994L42.2377 24.2497L37.5177 26.3561C36.2701 26.9111 35.2877 27.93 34.7785 29.197C34.2692 30.4639 34.2732 31.8793 34.7896 33.1434L33.3828 33.7708L33.2513 33.0868C32.8865 31.1712 33.0453 29.1927 33.7112 27.3599L36.1494 26.2772L36.1502 26.2786L36.6225 26.0675L37.0049 25.8979C37.0116 25.8948 37.0183 25.8916 37.0249 25.8882L40.0063 24.5582C42.1645 23.5927 43.1433 21.0605 42.176 18.8977L41.8414 18.1491L37.9914 19.8669L37.9893 19.8681C35.8706 20.8052 34.9084 23.2463 35.7531 25.3708L34.2917 26.0185C35.1992 23.9794 35.5106 21.725 35.19 19.5163L35.2629 19.4079C37.2283 16.5004 36.4647 12.5552 33.5587 10.5974L33.5594 10.597ZM34.3491 17.6643C34.3395 17.666 34.33 17.6683 34.3208 17.6712C33.67 17.0072 33.2302 16.1655 33.0565 15.2522C32.8829 14.3388 32.9833 13.3945 33.3451 12.5381C34.0002 13.1977 34.4453 14.0367 34.624 14.949C34.8026 15.8614 34.707 16.8063 34.3491 17.6643ZM28.7528 21.8816C28.2899 21.5689 27.9376 21.1178 27.7463 20.5928C27.555 20.0679 27.5345 19.4959 27.6877 18.9586L29.7131 20.3267C30.1759 20.6395 30.5279 21.0907 30.7187 21.6157C30.9095 22.1407 30.9293 22.7126 30.7753 23.2495L28.7528 21.8816ZM26.9849 29.4573C26.3095 29.0013 25.8083 28.3301 25.563 27.553C25.3177 26.7759 25.3427 25.9386 25.6339 25.1775L28.475 27.0951C29.1494 27.5521 29.6504 28.224 29.8959 29.0008C30.1415 29.7776 30.1178 30.6145 29.8286 31.3762L26.986 29.4576L26.9849 29.4573ZM39.3374 23.0598L37.1032 24.056C37.0444 23.5016 37.1629 22.9427 37.4416 22.4599C37.7204 21.977 38.1451 21.5949 38.6547 21.3686L38.6568 21.3673L40.8938 20.3695C40.9505 20.9246 40.8305 21.4835 40.551 21.9664C40.2714 22.4494 39.847 22.8325 39.3374 23.0598ZM36.1042 31.8377C35.9508 31.0363 36.0729 30.2065 36.4508 29.4833C36.8287 28.7601 37.44 28.1859 38.1855 27.8541L41.3212 26.4549C41.4746 27.2564 41.3525 28.0861 40.9746 28.8093C40.5967 29.5326 39.9853 30.1067 39.2399 30.4385L36.1042 31.8377Z" fill="#FB9191"/>
</g>
<path d="M3.46526 58.8308C3.00887 58.8308 2.59624 58.7526 2.22737 58.5963C1.86476 58.44 1.57717 58.215 1.36461 57.9211C1.15204 57.6273 1.04263 57.2803 1.03638 56.8802H2.44307C2.46182 57.149 2.5556 57.3616 2.7244 57.5179C2.89946 57.6742 3.13703 57.7523 3.43713 57.7523C3.74347 57.7523 3.98417 57.6804 4.15923 57.5366C4.33428 57.3866 4.42181 57.1928 4.42181 56.9552C4.42181 56.7614 4.36241 56.602 4.24363 56.4769C4.12484 56.3519 3.97479 56.255 3.79349 56.1862C3.61843 56.1112 3.37461 56.0299 3.06201 55.9424C2.63688 55.8173 2.28989 55.6954 2.02106 55.5766C1.75848 55.4516 1.53028 55.2672 1.33647 55.0233C1.14891 54.7733 1.05514 54.4419 1.05514 54.0293C1.05514 53.6417 1.15204 53.3041 1.34585 53.0165C1.53966 52.7289 1.81162 52.5101 2.16173 52.36C2.51184 52.2037 2.91196 52.1256 3.3621 52.1256C4.03731 52.1256 4.58436 52.2912 5.00324 52.6226C5.42837 52.9477 5.66282 53.4041 5.70658 53.9918H4.26238C4.24988 53.7667 4.15297 53.5823 3.97167 53.4385C3.79661 53.2884 3.56216 53.2134 3.26832 53.2134C3.01199 53.2134 2.80568 53.2791 2.64938 53.4103C2.49933 53.5416 2.42431 53.7323 2.42431 53.9824C2.42431 54.1575 2.48058 54.3044 2.59311 54.4232C2.7119 54.5357 2.8557 54.6295 3.0245 54.7045C3.19955 54.7733 3.44338 54.8545 3.75598 54.9483C4.18111 55.0734 4.52809 55.1984 4.79692 55.3234C5.06576 55.4485 5.29708 55.636 5.49089 55.8861C5.6847 56.1362 5.78161 56.4644 5.78161 56.8708C5.78161 57.2209 5.69095 57.546 5.50965 57.8461C5.32834 58.1462 5.06263 58.3869 4.71252 58.5682C4.36241 58.7433 3.94666 58.8308 3.46526 58.8308ZM11.7495 56.0549C11.7495 56.2425 11.737 56.4113 11.712 56.5613H7.91391C7.94517 56.9364 8.07646 57.2303 8.30778 57.4429C8.5391 57.6554 8.82357 57.7617 9.16117 57.7617C9.64882 57.7617 9.99581 57.5523 10.2021 57.1334H11.6182C11.4681 57.6335 11.1805 58.0462 10.7554 58.3713C10.3303 58.6901 9.80825 58.8495 9.18931 58.8495C8.68915 58.8495 8.23901 58.7401 7.83889 58.5213C7.44501 58.2962 7.13554 57.9805 6.91047 57.5741C6.69165 57.1678 6.58224 56.6989 6.58224 56.1675C6.58224 55.6298 6.69165 55.1578 6.91047 54.7514C7.12929 54.345 7.43563 54.0324 7.82951 53.8136C8.22338 53.5948 8.67665 53.4854 9.18931 53.4854C9.68321 53.4854 10.124 53.5917 10.5116 53.8042C10.9055 54.0168 11.2087 54.32 11.4212 54.7139C11.6401 55.1015 11.7495 55.5485 11.7495 56.0549ZM10.3897 55.6798C10.3834 55.3422 10.2615 55.0734 10.0239 54.8733C9.78637 54.667 9.49565 54.5638 9.15179 54.5638C8.82669 54.5638 8.55161 54.6639 8.32654 54.8639C8.10772 55.0577 7.9733 55.3297 7.92329 55.6798H10.3897ZM14.6959 58.8495C14.2708 58.8495 13.8894 58.7745 13.5518 58.6245C13.2142 58.4682 12.9454 58.2587 12.7453 57.9961C12.5515 57.7336 12.4452 57.4429 12.4264 57.124H13.7487C13.7737 57.3241 13.8706 57.4897 14.0394 57.621C14.2145 57.7523 14.4302 57.818 14.6865 57.818C14.9366 57.818 15.1304 57.768 15.268 57.6679C15.4117 57.5679 15.4836 57.4397 15.4836 57.2834C15.4836 57.1146 15.3961 56.9896 15.2211 56.9083C15.0523 56.8208 14.7803 56.727 14.4052 56.627C14.0176 56.5332 13.6987 56.4363 13.4486 56.3363C13.2048 56.2362 12.9922 56.0831 12.8109 55.8767C12.6359 55.6704 12.5484 55.3922 12.5484 55.0421C12.5484 54.7545 12.6296 54.4919 12.7922 54.2544C12.961 54.0168 13.1986 53.8292 13.5049 53.6917C13.8175 53.5541 14.1832 53.4854 14.6021 53.4854C15.2211 53.4854 15.715 53.6417 16.0838 53.9543C16.4527 54.2606 16.6559 54.6764 16.6934 55.2015H15.4368C15.418 54.9952 15.3305 54.8327 15.1742 54.7139C15.0241 54.5888 14.8209 54.5263 14.5646 54.5263C14.327 54.5263 14.1426 54.5701 14.0113 54.6576C13.8863 54.7451 13.8238 54.867 13.8238 55.0233C13.8238 55.1984 13.9113 55.3328 14.0863 55.4266C14.2614 55.5141 14.5334 55.6048 14.9022 55.6986C15.2773 55.7923 15.5868 55.8892 15.8306 55.9893C16.0745 56.0893 16.2839 56.2456 16.4589 56.4582C16.6403 56.6645 16.734 56.9396 16.7403 57.2834C16.7403 57.5835 16.6559 57.8524 16.4871 58.0899C16.3245 58.3275 16.087 58.5151 15.7744 58.6526C15.468 58.7839 15.1085 58.8495 14.6959 58.8495ZM17.4804 56.1487C17.4804 55.6235 17.5836 55.1578 17.7899 54.7514C18.0024 54.345 18.2869 54.0324 18.6433 53.8136C19.0059 53.5948 19.4091 53.4854 19.853 53.4854C20.2406 53.4854 20.5782 53.5635 20.8658 53.7198C21.1597 53.8761 21.3941 54.0731 21.5692 54.3106V53.5698H22.8915V58.7651H21.5692V58.0055C21.4004 58.2494 21.1659 58.4525 20.8658 58.6151C20.572 58.7714 20.2313 58.8495 19.8436 58.8495C19.406 58.8495 19.0059 58.737 18.6433 58.5119C18.2869 58.2869 18.0024 57.9711 17.7899 57.5648C17.5836 57.1521 17.4804 56.6801 17.4804 56.1487ZM21.5692 56.1675C21.5692 55.8486 21.5067 55.5766 21.3816 55.3516C21.2566 55.1203 21.0878 54.9452 20.8752 54.8264C20.6626 54.7014 20.4345 54.6389 20.1906 54.6389C19.9468 54.6389 19.7217 54.6982 19.5154 54.817C19.3091 54.9358 19.1403 55.1109 19.009 55.3422C18.884 55.5673 18.8215 55.8361 18.8215 56.1487C18.8215 56.4613 18.884 56.7364 19.009 56.974C19.1403 57.2053 19.3091 57.3835 19.5154 57.5085C19.728 57.6335 19.9531 57.6961 20.1906 57.6961C20.4345 57.6961 20.6626 57.6367 20.8752 57.5179C21.0878 57.3928 21.2566 57.2178 21.3816 56.9927C21.5067 56.7614 21.5692 56.4863 21.5692 56.1675ZM30.6258 53.4947C31.2635 53.4947 31.7761 53.6917 32.1637 54.0856C32.5576 54.4732 32.7545 55.0171 32.7545 55.7173V58.7651H31.4416V55.8955C31.4416 55.4891 31.3385 55.1796 31.1322 54.9671C30.9259 54.7483 30.6445 54.6389 30.2882 54.6389C29.9318 54.6389 29.6473 54.7483 29.4348 54.9671C29.2284 55.1796 29.1253 55.4891 29.1253 55.8955V58.7651H27.8124V55.8955C27.8124 55.4891 27.7092 55.1796 27.5029 54.9671C27.2966 54.7483 27.0153 54.6389 26.6589 54.6389C26.2963 54.6389 26.0087 54.7483 25.7961 54.9671C25.5898 55.1796 25.4867 55.4891 25.4867 55.8955V58.7651H24.1738V53.5698H25.4867V54.1981C25.6555 53.9793 25.8712 53.8073 26.1337 53.6823C26.4026 53.5573 26.6964 53.4947 27.0153 53.4947C27.4216 53.4947 27.7842 53.5823 28.1031 53.7573C28.4219 53.9261 28.6689 54.17 28.844 54.4888C29.0128 54.1887 29.2566 53.948 29.5754 53.7667C29.9005 53.5854 30.2506 53.4947 30.6258 53.4947ZM38.83 56.0549C38.83 56.2425 38.8175 56.4113 38.7925 56.5613H34.9945C35.0257 56.9364 35.157 57.2303 35.3883 57.4429C35.6197 57.6554 35.9041 57.7617 36.2417 57.7617C36.7294 57.7617 37.0764 57.5523 37.2827 57.1334H38.6988C38.5487 57.6335 38.2611 58.0462 37.836 58.3713C37.4109 58.6901 36.8888 58.8495 36.2699 58.8495C35.7697 58.8495 35.3196 58.7401 34.9195 58.5213C34.5256 58.2962 34.2161 57.9805 33.991 57.5741C33.7722 57.1678 33.6628 56.6989 33.6628 56.1675C33.6628 55.6298 33.7722 55.1578 33.991 54.7514C34.2099 54.345 34.5162 54.0324 34.9101 53.8136C35.3039 53.5948 35.7572 53.4854 36.2699 53.4854C36.7638 53.4854 37.2045 53.5917 37.5922 53.8042C37.986 54.0168 38.2893 54.32 38.5018 54.7139C38.7206 55.1015 38.83 55.5485 38.83 56.0549ZM37.4702 55.6798C37.464 55.3422 37.3421 55.0734 37.1045 54.8733C36.8669 54.667 36.5762 54.5638 36.2324 54.5638C35.9073 54.5638 35.6322 54.6639 35.4071 54.8639C35.1883 55.0577 35.0539 55.3297 35.0039 55.6798H37.4702ZM43.7833 54.8639V55.9705H39.8071V54.8639H43.7833ZM49.2976 52.2194V53.2791H46.5687V54.9577H48.6599V55.9987H46.5687V58.7651H45.2557V52.2194H49.2976ZM51.5415 54.3763C51.7103 54.1012 51.9291 53.8855 52.198 53.7292C52.4731 53.5729 52.7856 53.4947 53.1358 53.4947V54.8733H52.7888C52.3761 54.8733 52.0635 54.9702 51.851 55.164C51.6447 55.3578 51.5415 55.6954 51.5415 56.1768V58.7651H50.2286V53.5698H51.5415V54.3763ZM58.8497 56.0549C58.8497 56.2425 58.8372 56.4113 58.8122 56.5613H55.0141C55.0454 56.9364 55.1767 57.2303 55.408 57.4429C55.6393 57.6554 55.9238 57.7617 56.2614 57.7617C56.749 57.7617 57.096 57.5523 57.3023 57.1334H58.7184C58.5684 57.6335 58.2808 58.0462 57.8556 58.3713C57.4305 58.6901 56.9085 58.8495 56.2895 58.8495C55.7894 58.8495 55.3392 58.7401 54.9391 58.5213C54.5452 58.2962 54.2358 57.9805 54.0107 57.5741C53.7919 57.1678 53.6825 56.6989 53.6825 56.1675C53.6825 55.6298 53.7919 55.1578 54.0107 54.7514C54.2295 54.345 54.5359 54.0324 54.9297 53.8136C55.3236 53.5948 55.7769 53.4854 56.2895 53.4854C56.7834 53.4854 57.2242 53.5917 57.6118 53.8042C58.0057 54.0168 58.3089 54.32 58.5215 54.7139C58.7403 55.1015 58.8497 55.5485 58.8497 56.0549ZM57.4899 55.6798C57.4836 55.3422 57.3617 55.0734 57.1242 54.8733C56.8866 54.667 56.5959 54.5638 56.252 54.5638C55.9269 54.5638 55.6518 54.6639 55.4268 54.8639C55.2079 55.0577 55.0735 55.3297 55.0235 55.6798H57.4899ZM64.6376 56.0549C64.6376 56.2425 64.6251 56.4113 64.6001 56.5613H60.8021C60.8333 56.9364 60.9646 57.2303 61.1959 57.4429C61.4273 57.6554 61.7117 57.7617 62.0493 57.7617C62.537 57.7617 62.884 57.5523 63.0903 57.1334H64.5063C64.3563 57.6335 64.0687 58.0462 63.6436 58.3713C63.2184 58.6901 62.6964 58.8495 62.0775 58.8495C61.5773 58.8495 61.1272 58.7401 60.727 58.5213C60.3332 58.2962 60.0237 57.9805 59.7986 57.5741C59.5798 57.1678 59.4704 56.6989 59.4704 56.1675C59.4704 55.6298 59.5798 55.1578 59.7986 54.7514C60.0174 54.345 60.3238 54.0324 60.7177 53.8136C61.1115 53.5948 61.5648 53.4854 62.0775 53.4854C62.5714 53.4854 63.0121 53.5917 63.3997 53.8042C63.7936 54.0168 64.0968 54.32 64.3094 54.7139C64.5282 55.1015 64.6376 55.5485 64.6376 56.0549ZM63.2778 55.6798C63.2716 55.3422 63.1497 55.0734 62.9121 54.8733C62.6745 54.667 62.3838 54.5638 62.0399 54.5638C61.7148 54.5638 61.4398 54.6639 61.2147 54.8639C60.9959 55.0577 60.8615 55.3297 60.8114 55.6798H63.2778Z" fill="#FB9191"/>
<defs>
<clipPath id="clip0_433_147">
<rect width="26.2582" height="26.2582" fill="white" transform="translate(15.2397 19.6936) rotate(-30)"/>
</clipPath>
</defs>
</svg>
