<svg width="67" height="63" viewBox="0 0 67 63" fill="none" xmlns="http://www.w3.org/2000/svg">
<path d="M33.1729 42.7811C43.4328 42.7811 51.7501 34.4638 51.7501 24.2039C51.7501 13.944 43.4328 5.62671 33.1729 5.62671C22.913 5.62671 14.5957 13.944 14.5957 24.2039C14.5957 34.4638 22.913 42.7811 33.1729 42.7811Z" stroke="#FB9191" stroke-width="1.87558" stroke-linecap="round" stroke-linejoin="round"/>
<path d="M45.9445 11.432L20.4009 36.9757" stroke="#FB9191" stroke-width="1.87558" stroke-linecap="round" stroke-linejoin="round"/>
<path d="M21.5269 17.2028C21.2515 16.6637 21.1566 16.0504 21.2564 15.4533C21.3561 14.8562 21.6452 14.307 22.0809 13.8868C22.5166 13.4665 23.0759 13.1975 23.6762 13.1193C24.2765 13.0412 24.886 13.1581 25.4147 13.4528C25.9316 13.0507 26.5791 12.8544 27.2322 12.902C27.8853 12.9496 28.4975 13.2377 28.9506 13.7104L28.9514 13.7121L29.4971 14.2865C30.1865 14.0021 30.9461 13.9337 31.6752 14.0905C32.4043 14.2473 33.0686 14.6218 33.5802 15.1645L33.5819 15.1661L34.6429 16.2813C35.6354 16.2363 36.6261 16.4047 37.548 16.7752C38.4699 17.1456 39.3017 17.7095 39.9872 18.4287L39.988 18.4304C41.0191 19.5126 41.6755 20.8973 41.8606 22.3806L43.1546 23.7378C46.56 27.3155 46.4254 32.988 42.8477 36.395C42.7521 36.4861 42.636 36.5527 42.5091 36.5893C42.3822 36.6259 42.2484 36.6313 42.119 36.6051C41.0917 36.6059 34.9809 36.6133 32.9632 36.6215C31.7593 36.6254 30.5674 36.3835 29.4603 35.9109C28.3531 35.4382 27.354 34.7447 26.5242 33.8726L26.5233 33.8718C25.5984 32.9011 24.9059 31.7331 24.4981 30.4558C24.0903 29.1785 23.9778 27.8253 24.1691 26.4982L22.9859 25.255C22.4728 24.7144 22.1348 24.0315 22.0161 23.2957C21.8973 22.5599 22.0034 21.8054 22.3204 21.1308L21.7731 20.5548V20.554C21.3505 20.1102 21.095 19.5336 21.0501 18.9225C21.0052 18.3113 21.1737 17.7035 21.5269 17.2028ZM24.046 14.7362H24.0403C23.7364 14.7363 23.4441 14.8535 23.2244 15.0635C23.0046 15.2734 22.8743 15.56 22.8603 15.8636L24.046 14.7362ZM32.3912 16.2952L32.3879 16.2928C32.2044 16.0966 31.9837 15.9387 31.7388 15.8284C31.4938 15.7181 31.2293 15.6575 30.9608 15.6501C30.6922 15.6426 30.4248 15.6886 30.1741 15.7853C29.9234 15.8819 29.6944 16.0274 29.5004 16.2132L29.4971 16.2165L24.2446 21.2227C23.8512 21.5988 23.6231 22.1156 23.6102 22.6597C23.5972 23.2038 23.8006 23.7307 24.1757 24.1251L24.6492 24.6224C25.1187 23.3753 25.864 22.2505 26.8294 21.3319L26.8302 21.3311L26.831 21.3302L26.9952 21.1735L27.5449 20.6484C28.0578 20.1593 28.8784 19.3765 30.1133 18.2031C30.8553 17.4964 31.7436 16.9616 32.7153 16.6366L32.3912 16.2952ZM26.3461 14.8133L26.3445 14.8141L22.9974 17.9979C22.8036 18.1817 22.6907 18.4348 22.6835 18.7018C22.6762 18.9687 22.7753 19.2276 22.9588 19.4216L22.9604 19.4232L23.3297 19.8114L28.1325 15.2326L27.7616 14.8428C27.5773 14.652 27.3251 14.5418 27.0599 14.5363C26.7947 14.5307 26.5381 14.6303 26.3461 14.8133ZM38.7982 19.5611C36.7739 17.4375 33.3874 17.3562 31.2432 19.3929C30.2038 20.3805 29.1655 21.3693 28.1284 22.3592L27.9626 22.5184C25.0734 25.2755 24.9626 29.8518 27.7115 32.7402C28.3875 33.4507 29.2013 34.0159 30.1031 34.401C31.005 34.7862 31.9759 34.9834 32.9566 34.9804C34.5944 34.9738 38.9246 34.9681 41.0507 34.9648L40.4073 34.2246L38.1557 31.8064C37.4804 30.9342 36.9889 29.2676 38.1557 27.7159C38.2652 27.5796 38.3819 27.4492 38.5053 27.3253C38.9755 26.833 39.6754 26.0986 40.1382 24.7282L40.2408 22.6596C40.1124 21.4966 39.6056 20.4079 38.7982 19.5611ZM40.9563 33.6043L42.0509 34.8655C44.6398 32.0592 44.6357 27.6757 41.9656 24.871L41.0031 23.8601L40.9366 25.2173C42.5818 27.2211 43.3868 30.5321 40.9563 33.6043Z" fill="#FB9191"/>
<path d="M3.25872 58.8308C2.80232 58.8308 2.3897 58.7526 2.02083 58.5963C1.65822 58.44 1.37063 58.215 1.15806 57.9211C0.945497 57.6273 0.836088 57.2803 0.829836 56.8802H2.23652C2.25528 57.149 2.34906 57.3616 2.51786 57.5179C2.69292 57.6742 2.93049 57.7523 3.23058 57.7523C3.53693 57.7523 3.77763 57.6804 3.95268 57.5366C4.12774 57.3866 4.21526 57.1928 4.21526 56.9552C4.21526 56.7614 4.15587 56.602 4.03708 56.4769C3.9183 56.3519 3.76825 56.255 3.58694 56.1862C3.41189 56.1112 3.16806 56.0299 2.85547 55.9424C2.43033 55.8173 2.08335 55.6954 1.81452 55.5766C1.55194 55.4516 1.32374 55.2672 1.12993 55.0233C0.942371 54.7733 0.848592 54.4419 0.848592 54.0293C0.848592 53.6417 0.945497 53.3041 1.13931 53.0165C1.33312 52.7289 1.60508 52.5101 1.95519 52.36C2.3053 52.2037 2.70542 52.1256 3.15556 52.1256C3.83077 52.1256 4.37781 52.2912 4.7967 52.6226C5.22183 52.9477 5.45628 53.4041 5.50004 53.9918H4.05584C4.04334 53.7667 3.94643 53.5823 3.76512 53.4385C3.59007 53.2884 3.35562 53.2134 3.06178 53.2134C2.80545 53.2134 2.59914 53.2791 2.44284 53.4103C2.29279 53.5416 2.21777 53.7323 2.21777 53.9824C2.21777 54.1575 2.27404 54.3044 2.38657 54.4232C2.50536 54.5357 2.64915 54.6295 2.81795 54.7045C2.99301 54.7733 3.23683 54.8545 3.54943 54.9483C3.97456 55.0734 4.32155 55.1984 4.59038 55.3234C4.85921 55.4485 5.09054 55.636 5.28435 55.8861C5.47816 56.1362 5.57506 56.4644 5.57506 56.8708C5.57506 57.2209 5.48441 57.546 5.3031 57.8461C5.1218 58.1462 4.85609 58.3869 4.50598 58.5682C4.15587 58.7433 3.74012 58.8308 3.25872 58.8308ZM9.63922 53.4947C10.0331 53.4947 10.3832 53.5823 10.6895 53.7573C10.9959 53.9261 11.2335 54.1793 11.4023 54.5169C11.5773 54.8483 11.6648 55.2484 11.6648 55.7173V58.7651H10.3519V55.8955C10.3519 55.4829 10.2488 55.1671 10.0425 54.9483C9.83615 54.7233 9.55482 54.6107 9.19845 54.6107C8.83584 54.6107 8.54825 54.7233 8.33569 54.9483C8.12937 55.1671 8.02621 55.4829 8.02621 55.8955V58.7651H6.71331V51.8255H8.02621V54.2168C8.19502 53.9918 8.42009 53.8167 8.70142 53.6917C8.98276 53.5604 9.29536 53.4947 9.63922 53.4947ZM17.743 56.0549C17.743 56.2425 17.7305 56.4113 17.7055 56.5613H13.9074C13.9387 56.9364 14.07 57.2303 14.3013 57.4429C14.5326 57.6554 14.8171 57.7617 15.1547 57.7617C15.6423 57.7617 15.9893 57.5523 16.1956 57.1334H17.6117C17.4616 57.6335 17.1741 58.0462 16.7489 58.3713C16.3238 58.6901 15.8018 58.8495 15.1828 58.8495C14.6827 58.8495 14.2325 58.7401 13.8324 58.5213C13.4385 58.2962 13.129 57.9805 12.904 57.5741C12.6852 57.1678 12.5757 56.6989 12.5757 56.1675C12.5757 55.6298 12.6852 55.1578 12.904 54.7514C13.1228 54.345 13.4291 54.0324 13.823 53.8136C14.2169 53.5948 14.6702 53.4854 15.1828 53.4854C15.6767 53.4854 16.1175 53.5917 16.5051 53.8042C16.899 54.0168 17.2022 54.32 17.4148 54.7139C17.6336 55.1015 17.743 55.5485 17.743 56.0549ZM16.3832 55.6798C16.3769 55.3422 16.255 55.0734 16.0174 54.8733C15.7799 54.667 15.4892 54.5638 15.1453 54.5638C14.8202 54.5638 14.5451 54.6639 14.32 54.8639C14.1012 55.0577 13.9668 55.3297 13.9168 55.6798H16.3832ZM20.0142 51.8255V58.7651H18.7013V51.8255H20.0142ZM22.6243 51.8255V58.7651H21.3114V51.8255H22.6243ZM26.3034 54.6482H25.3937V58.7651H24.0621V54.6482H23.4713V53.5698H24.0621V53.3072C24.0621 52.6695 24.2434 52.2006 24.606 51.9005C24.9686 51.6004 25.5157 51.4597 26.2471 51.4785V52.5851C25.9283 52.5788 25.7063 52.632 25.5813 52.7445C25.4563 52.857 25.3937 53.0602 25.3937 53.3541V53.5698H26.3034V54.6482ZM27.8201 52.9508C27.5887 52.9508 27.3949 52.8789 27.2386 52.7351C27.0886 52.5851 27.0136 52.4007 27.0136 52.1818C27.0136 51.963 27.0886 51.7817 27.2386 51.6379C27.3949 51.4879 27.5887 51.4128 27.8201 51.4128C28.0514 51.4128 28.2421 51.4879 28.3921 51.6379C28.5484 51.7817 28.6266 51.963 28.6266 52.1818C28.6266 52.4007 28.5484 52.5851 28.3921 52.7351C28.2421 52.8789 28.0514 52.9508 27.8201 52.9508ZM28.4671 53.5698V58.7651H27.1542V53.5698H28.4671ZM31.7524 58.8495C31.3273 58.8495 30.9459 58.7745 30.6083 58.6245C30.2707 58.4682 30.0019 58.2587 29.8018 57.9961C29.608 57.7336 29.5017 57.4429 29.483 57.124H30.8052C30.8303 57.3241 30.9272 57.4897 31.096 57.621C31.271 57.7523 31.4867 57.818 31.743 57.818C31.9931 57.818 32.1869 57.768 32.3245 57.6679C32.4683 57.5679 32.5402 57.4397 32.5402 57.2834C32.5402 57.1146 32.4526 56.9896 32.2776 56.9083C32.1088 56.8208 31.8368 56.727 31.4617 56.627C31.0741 56.5332 30.7552 56.4363 30.5052 56.3363C30.2613 56.2362 30.0488 56.0831 29.8675 55.8767C29.6924 55.6704 29.6049 55.3922 29.6049 55.0421C29.6049 54.7545 29.6861 54.4919 29.8487 54.2544C30.0175 54.0168 30.2551 53.8292 30.5614 53.6917C30.874 53.5541 31.2398 53.4854 31.6586 53.4854C32.2776 53.4854 32.7715 53.6417 33.1403 53.9543C33.5092 54.2606 33.7124 54.6764 33.7499 55.2015H32.4933C32.4745 54.9952 32.387 54.8327 32.2307 54.7139C32.0806 54.5888 31.8775 54.5263 31.6211 54.5263C31.3836 54.5263 31.1991 54.5701 31.0678 54.6576C30.9428 54.7451 30.8803 54.867 30.8803 55.0233C30.8803 55.1984 30.9678 55.3328 31.1429 55.4266C31.3179 55.5141 31.5899 55.6048 31.9587 55.6986C32.3338 55.7923 32.6433 55.8892 32.8871 55.9893C33.131 56.0893 33.3404 56.2456 33.5155 56.4582C33.6968 56.6645 33.7906 56.9396 33.7968 57.2834C33.7968 57.5835 33.7124 57.8524 33.5436 58.0899C33.381 58.3275 33.1435 58.5151 32.8309 58.6526C32.5245 58.7839 32.165 58.8495 31.7524 58.8495ZM37.8004 53.4947C38.1943 53.4947 38.5444 53.5823 38.8508 53.7573C39.1571 53.9261 39.3947 54.1793 39.5635 54.5169C39.7385 54.8483 39.8261 55.2484 39.8261 55.7173V58.7651H38.5132V55.8955C38.5132 55.4829 38.41 55.1671 38.2037 54.9483C37.9974 54.7233 37.716 54.6107 37.3597 54.6107C36.9971 54.6107 36.7095 54.7233 36.4969 54.9483C36.2906 55.1671 36.1874 55.4829 36.1874 55.8955V58.7651H34.8745V51.8255H36.1874V54.2168C36.3562 53.9918 36.5813 53.8167 36.8626 53.6917C37.144 53.5604 37.4566 53.4947 37.8004 53.4947ZM45.0696 54.8639V55.9705H41.0933V54.8639H45.0696ZM50.5839 52.2194V53.2791H47.8549V54.9577H49.9462V55.9987H47.8549V58.7651H46.542V52.2194H50.5839ZM52.8277 54.3763C52.9965 54.1012 53.2154 53.8855 53.4842 53.7292C53.7593 53.5729 54.0719 53.4947 54.422 53.4947V54.8733H54.075C53.6624 54.8733 53.3498 54.9702 53.1372 55.164C52.9309 55.3578 52.8277 55.6954 52.8277 56.1768V58.7651H51.5148V53.5698H52.8277V54.3763ZM60.1359 56.0549C60.1359 56.2425 60.1234 56.4113 60.0984 56.5613H56.3004C56.3316 56.9364 56.4629 57.2303 56.6942 57.4429C56.9256 57.6554 57.21 57.7617 57.5476 57.7617C58.0353 57.7617 58.3823 57.5523 58.5886 57.1334H60.0046C59.8546 57.6335 59.567 58.0462 59.1419 58.3713C58.7167 58.6901 58.1947 58.8495 57.5758 58.8495C57.0756 58.8495 56.6255 58.7401 56.2253 58.5213C55.8315 58.2962 55.522 57.9805 55.2969 57.5741C55.0781 57.1678 54.9687 56.6989 54.9687 56.1675C54.9687 55.6298 55.0781 55.1578 55.2969 54.7514C55.5157 54.345 55.8221 54.0324 56.216 53.8136C56.6098 53.5948 57.0631 53.4854 57.5758 53.4854C58.0697 53.4854 58.5104 53.5917 58.898 53.8042C59.2919 54.0168 59.5951 54.32 59.8077 54.7139C60.0265 55.1015 60.1359 55.5485 60.1359 56.0549ZM58.7761 55.6798C58.7699 55.3422 58.648 55.0734 58.4104 54.8733C58.1728 54.667 57.8821 54.5638 57.5382 54.5638C57.2131 54.5638 56.9381 54.6639 56.713 54.8639C56.4942 55.0577 56.3598 55.3297 56.3097 55.6798H58.7761ZM65.9239 56.0549C65.9239 56.2425 65.9114 56.4113 65.8863 56.5613H62.0883C62.1196 56.9364 62.2508 57.2303 62.4822 57.4429C62.7135 57.6554 62.9979 57.7617 63.3356 57.7617C63.8232 57.7617 64.1702 57.5523 64.3765 57.1334H65.7926C65.6425 57.6335 65.3549 58.0462 64.9298 58.3713C64.5047 58.6901 63.9826 58.8495 63.3637 58.8495C62.8635 58.8495 62.4134 58.7401 62.0133 58.5213C61.6194 58.2962 61.3099 57.9805 61.0849 57.5741C60.866 57.1678 60.7566 56.6989 60.7566 56.1675C60.7566 55.6298 60.866 55.1578 61.0849 54.7514C61.3037 54.345 61.61 54.0324 62.0039 53.8136C62.3978 53.5948 62.851 53.4854 63.3637 53.4854C63.8576 53.4854 64.2984 53.5917 64.686 53.8042C65.0798 54.0168 65.3831 54.32 65.5956 54.7139C65.8144 55.1015 65.9239 55.5485 65.9239 56.0549ZM64.5641 55.6798C64.5578 55.3422 64.4359 55.0734 64.1983 54.8733C63.9607 54.667 63.67 54.5638 63.3262 54.5638C63.0011 54.5638 62.726 54.6639 62.5009 54.8639C62.2821 55.0577 62.1477 55.3297 62.0977 55.6798H64.5641Z" fill="#FB9191"/>
</svg>
