<svg width="50" height="63" viewBox="0 0 50 63" fill="none" xmlns="http://www.w3.org/2000/svg">
<path d="M24.9879 42.7811C35.2478 42.7811 43.5651 34.4638 43.5651 24.2039C43.5651 13.944 35.2478 5.62671 24.9879 5.62671C14.7279 5.62671 6.41064 13.944 6.41064 24.2039C6.41064 34.4638 14.7279 42.7811 24.9879 42.7811Z" stroke="#FB9191" stroke-width="1.87558" stroke-linecap="round" stroke-linejoin="round"/>
<path d="M37.7595 11.432L12.2158 36.9757" stroke="#FB9191" stroke-width="1.87558" stroke-linecap="round" stroke-linejoin="round"/>
<g clip-path="url(#clip0_433_135)">
<path d="M23.3354 28.0834C23.2874 28.0959 23.2423 28.1179 23.2028 28.148C23.1633 28.178 23.1301 28.2156 23.1052 28.2585C23.0802 28.3015 23.064 28.3489 23.0575 28.3981C23.0509 28.4473 23.0542 28.4974 23.0671 28.5453C23.1696 28.9159 23.1469 29.31 23.0025 29.6664C22.8582 30.0228 22.6002 30.3215 22.2687 30.5163C22.1976 30.5573 22.1426 30.6213 22.1128 30.6977C22.0839 30.7711 22.0786 30.8516 22.0976 30.9281C22.1166 31.0046 22.1589 31.0734 22.2187 31.1248C22.2785 31.1761 22.3527 31.2077 22.4312 31.215C22.5098 31.2222 22.5886 31.2049 22.6568 31.1654C23.1283 30.8858 23.495 30.4592 23.7006 29.951C23.9081 29.4428 23.9422 28.8803 23.7974 28.3509C23.7714 28.2546 23.7082 28.1725 23.6218 28.1227C23.5791 28.097 23.5316 28.0802 23.4822 28.0735C23.4329 28.0667 23.3834 28.0701 23.3354 28.0834Z" fill="#FB9191"/>
<path d="M20.6515 36.2209C21.3471 36.5707 22.1256 36.7217 22.9015 36.6574C23.923 36.5788 24.9021 36.2163 25.7286 35.6108C26.555 35.0053 27.1958 34.181 27.5787 33.2307L29.105 29.4652C29.4925 28.5182 29.6075 27.4817 29.4369 26.4728C29.2664 25.4638 28.8172 24.5227 28.14 23.7557C27.6671 23.2138 27.064 22.8014 26.3875 22.5573C25.7109 22.3132 24.9834 22.2455 24.2735 22.3607C23.5745 22.4679 22.9142 22.7509 22.3545 23.183C21.7948 23.6152 21.3539 24.1824 21.0733 24.8314L21.0298 24.9274C20.6593 25.8318 20.5967 26.833 20.8517 27.7764C20.8991 27.9489 20.8885 28.1321 20.8215 28.2979C20.7545 28.4637 20.6347 28.6028 20.4808 28.6938C19.6443 29.1872 18.9941 29.9429 18.6313 30.8437L18.5886 30.9471C18.334 31.6094 18.2524 32.3257 18.3514 33.0284C18.4505 33.731 18.727 34.3968 19.1548 34.963C19.5486 35.4934 20.0612 35.9242 20.6515 36.2209ZM22.3386 28.9113C22.5398 28.4146 22.5744 27.8661 22.4371 27.3481L22.4264 27.3506C22.267 26.7632 22.3016 26.1401 22.5249 25.574L22.5642 25.492C22.7317 25.0928 22.9996 24.7437 23.3418 24.4786C23.6839 24.2135 24.0889 24.0413 24.5172 23.9788C24.9539 23.907 25.4017 23.9479 25.8182 24.0977C26.2346 24.2475 26.6059 24.5012 26.8968 24.8347C27.3728 25.3739 27.6885 26.0355 27.8083 26.7447C27.9281 27.4539 27.8471 28.1825 27.5746 28.8481L26.0484 32.6129C25.7797 33.28 25.3301 33.859 24.7502 34.2845C24.1703 34.71 23.4832 34.9651 22.7661 35.0212C22.3262 35.0567 21.8845 34.9797 21.4825 34.7974C21.0806 34.615 20.7316 34.3335 20.4685 33.9791C20.2087 33.6443 20.0386 33.2489 19.9741 32.8301C19.9096 32.4112 19.953 31.9829 20.1001 31.5855L20.1452 31.4772C20.375 30.902 20.7885 30.4187 21.3219 30.1027C21.7814 29.8262 22.1376 29.4085 22.3394 28.9113H22.3386ZM32.4324 17.9329C32.4079 17.8793 32.371 17.8323 32.3248 17.7958C32.2786 17.7593 32.2243 17.7343 32.1665 17.7228C32.0686 17.7037 31.9671 17.7234 31.8834 17.7778C31.8418 17.8049 31.8059 17.8399 31.7779 17.8809C31.7499 17.9219 31.7302 17.968 31.7201 18.0166C31.6053 18.5606 31.6709 19.1096 31.904 19.6085C32.136 20.106 32.526 20.5128 33.0134 20.7655C33.0572 20.7886 33.1052 20.8029 33.1546 20.8074C33.2039 20.812 33.2537 20.8068 33.3011 20.7921C33.3484 20.7775 33.3924 20.7536 33.4306 20.7219C33.4687 20.6903 33.5002 20.6514 33.5233 20.6075C33.5465 20.5637 33.5607 20.5157 33.5653 20.4663C33.5698 20.417 33.5646 20.3672 33.55 20.3198C33.5353 20.2725 33.5115 20.2285 33.4798 20.1903C33.4481 20.1522 33.4092 20.1207 33.3654 20.0976C33.0245 19.92 32.7513 19.6353 32.5881 19.2874C32.4248 18.9394 32.3805 18.5473 32.4619 18.1717C32.4773 18.091 32.467 18.0074 32.4324 17.9329Z" fill="#FB9191"/>
<path d="M33.1159 26.3002H33.2201C33.9213 26.3013 34.6118 26.1284 35.2296 25.7968C35.8475 25.4653 36.3733 24.9855 36.7601 24.4006C37.1555 23.812 37.3945 23.1324 37.4548 22.4258C37.5151 21.7192 37.3946 21.009 37.1047 20.3618L37.0653 20.2797C36.6542 19.3943 35.9618 18.6696 35.096 18.2185C34.937 18.1355 34.8097 18.0027 34.7333 17.8404C34.657 17.6781 34.636 17.4953 34.6734 17.32C34.876 16.3642 34.7586 15.3682 34.3394 14.4857L34.2984 14.4037C33.984 13.7676 33.5128 13.222 32.9292 12.8184C32.3456 12.4149 31.6689 12.1666 30.9628 12.097C30.248 12.0211 29.5258 12.1284 28.864 12.4088C28.2022 12.6892 27.6226 13.1334 27.1799 13.6996C26.5455 14.5036 26.1483 15.4688 26.0331 16.4864C25.9178 17.5041 26.0891 18.5337 26.5276 19.4592L28.2598 23.1353C28.6934 24.0632 29.3779 24.8512 30.2359 25.4105C31.0939 25.9698 32.092 26.278 33.1159 26.3002ZM29.3807 13.977C29.7361 13.8042 30.1261 13.7147 30.5213 13.7152C31.0061 13.714 31.4814 13.8495 31.8927 14.1061C32.304 14.3627 32.6347 14.73 32.8468 15.166L32.8558 15.1857C33.1219 15.7445 33.1968 16.3754 33.0692 16.9811C32.9556 17.5059 33.0181 18.0535 33.2467 18.5394C33.4754 19.0252 33.8577 19.4223 34.3345 19.6692C34.8991 19.9676 35.3475 20.4466 35.608 21.0297C35.7876 21.4236 35.8625 21.8571 35.8254 22.2884C35.7883 22.7197 35.6405 23.1341 35.3963 23.4914C35.1511 23.8586 34.8173 24.158 34.4257 24.3619C34.0342 24.5659 33.5975 24.6678 33.1561 24.6583C32.4367 24.643 31.7358 24.4267 31.1329 24.0339C30.5299 23.641 30.0489 23.0873 29.7442 22.4354L28.0128 18.7601C27.7043 18.1099 27.5837 17.3865 27.6644 16.6714C27.7452 15.9563 28.0242 15.278 28.4699 14.713C28.7136 14.4012 29.0246 14.1501 29.3807 13.977ZM19.5725 17.0106C19.6141 16.9695 19.6646 16.9384 19.72 16.9198C19.7755 16.9012 19.8345 16.8955 19.8925 16.9031C19.9926 16.9162 20.082 16.9688 20.137 17.0524C20.1671 17.0918 20.1891 17.1367 20.2018 17.1846C20.2145 17.2325 20.2175 17.2824 20.2109 17.3314C20.1372 17.8747 19.8869 18.3787 19.4986 18.7658C19.1115 19.1541 18.6075 19.4043 18.0643 19.478C18.0143 19.4865 17.9631 19.4849 17.9137 19.4732C17.8644 19.4616 17.8179 19.4401 17.777 19.4101C17.7361 19.3801 17.7017 19.3422 17.6758 19.2986C17.6498 19.255 17.6329 19.2067 17.6261 19.1564C17.6192 19.1062 17.6225 19.0551 17.6357 19.0061C17.649 18.9572 17.672 18.9114 17.7033 18.8715C17.7346 18.8317 17.7736 18.7985 17.818 18.774C17.8624 18.7495 17.9112 18.7341 17.9617 18.7289C18.3427 18.6784 18.6964 18.5038 18.9682 18.2321C19.2399 17.9603 19.4145 17.6066 19.465 17.2256C19.4769 17.1443 19.5145 17.0689 19.5725 17.0106Z" fill="#FB9191"/>
<path d="M15.7731 24.8855C16.7445 25.2126 17.7881 25.2605 18.7854 25.0239C19.7826 24.7873 20.6935 24.2757 21.4145 23.5472L24.2865 20.6752C25.0136 19.9535 25.5243 19.0427 25.7607 18.0459C25.997 17.0491 25.9497 16.006 25.624 15.0346C25.3979 14.3513 25.0016 13.7366 24.4725 13.2486C23.9434 12.7605 23.2988 12.4151 22.5994 12.2447C21.9089 12.0722 21.1858 12.0784 20.4983 12.2626C19.8108 12.4468 19.1815 12.8029 18.6697 13.2975L18.5959 13.3738C17.9157 14.0599 17.4766 14.9482 17.3445 15.9053C17.3203 16.0825 17.2388 16.247 17.1124 16.3736C16.986 16.5003 16.8218 16.5822 16.6446 16.6068C15.6788 16.7367 14.783 17.1821 14.0967 17.8738L14.0261 17.9468C13.534 18.4579 13.1801 19.0858 12.9977 19.7714C12.8154 20.4571 12.8107 21.1779 12.984 21.8659C13.1542 22.5647 13.4997 23.2087 13.9879 23.737C14.476 24.2654 15.0899 24.6606 15.7731 24.8855ZM18.9692 16.1342C19.0546 15.5196 19.3385 14.9509 19.7775 14.5127L19.8185 14.4693C20.1287 14.1676 20.5114 13.9511 20.9297 13.8406C21.348 13.73 21.7877 13.7292 22.2064 13.8382C22.6359 13.9439 23.0315 14.1569 23.3562 14.4573C23.6809 14.7577 23.9239 15.1356 24.0625 15.5557C24.291 16.2379 24.3241 16.9705 24.1581 17.6706C23.9921 18.3707 23.6335 19.0104 23.1229 19.5174L20.2509 22.3894C19.7442 22.9001 19.1046 23.2587 18.4046 23.4246C17.7046 23.5905 16.9721 23.5571 16.2901 23.3281C15.8702 23.1897 15.4926 22.9467 15.1927 22.622C14.8928 22.2972 14.6805 21.9015 14.5759 21.472C14.467 21.0427 14.4722 20.5924 14.5908 20.1657C14.7093 19.7389 14.9373 19.3506 15.252 19.039C15.6875 18.5982 16.2569 18.3145 16.871 18.2324C17.4025 18.1612 17.8958 17.9172 18.2749 17.5381C18.654 17.1589 18.898 16.6656 18.9692 16.1342Z" fill="#FB9191"/>
</g>
<path d="M6.07366 58.8308C5.61727 58.8308 5.20464 58.7526 4.83577 58.5963C4.47316 58.44 4.18557 58.215 3.973 57.9211C3.76044 57.6273 3.65103 57.2803 3.64478 56.8802H5.05147C5.07022 57.149 5.164 57.3616 5.3328 57.5179C5.50786 57.6742 5.74543 57.7523 6.04552 57.7523C6.35187 57.7523 6.59257 57.6804 6.76762 57.5366C6.94268 57.3866 7.03021 57.1928 7.03021 56.9552C7.03021 56.7614 6.97081 56.602 6.85203 56.4769C6.73324 56.3519 6.58319 56.255 6.40189 56.1862C6.22683 56.1112 5.983 56.0299 5.67041 55.9424C5.24528 55.8173 4.89829 55.6954 4.62946 55.5766C4.36688 55.4516 4.13868 55.2672 3.94487 55.0233C3.75731 54.7733 3.66353 54.4419 3.66353 54.0293C3.66353 53.6417 3.76044 53.3041 3.95425 53.0165C4.14806 52.7289 4.42002 52.5101 4.77013 52.36C5.12024 52.2037 5.52036 52.1256 5.9705 52.1256C6.64571 52.1256 7.19276 52.2912 7.61164 52.6226C8.03677 52.9477 8.27122 53.4041 8.31498 53.9918H6.87078C6.85828 53.7667 6.76137 53.5823 6.58007 53.4385C6.40501 53.2884 6.17056 53.2134 5.87672 53.2134C5.62039 53.2134 5.41408 53.2791 5.25778 53.4103C5.10773 53.5416 5.03271 53.7323 5.03271 53.9824C5.03271 54.1575 5.08898 54.3044 5.20151 54.4232C5.3203 54.5357 5.46409 54.6295 5.6329 54.7045C5.80795 54.7733 6.05178 54.8545 6.36437 54.9483C6.78951 55.0734 7.13649 55.1984 7.40532 55.3234C7.67416 55.4485 7.90548 55.636 8.09929 55.8861C8.2931 56.1362 8.39 56.4644 8.39 56.8708C8.39 57.2209 8.29935 57.546 8.11804 57.8461C7.93674 58.1462 7.67103 58.3869 7.32092 58.5682C6.97081 58.7433 6.55506 58.8308 6.07366 58.8308ZM11.8352 58.8495C11.3351 58.8495 10.8849 58.7401 10.4848 58.5213C10.0847 58.2962 9.76895 57.9805 9.53763 57.5741C9.31256 57.1678 9.20002 56.6989 9.20002 56.1675C9.20002 55.636 9.31568 55.1671 9.547 54.7608C9.78458 54.3544 10.1066 54.0418 10.5129 53.823C10.9193 53.5979 11.3726 53.4854 11.8727 53.4854C12.3729 53.4854 12.8261 53.5979 13.2325 53.823C13.6389 54.0418 13.9578 54.3544 14.1891 54.7608C14.4266 55.1671 14.5454 55.636 14.5454 56.1675C14.5454 56.6989 14.4235 57.1678 14.1797 57.5741C13.9421 57.9805 13.617 58.2962 13.2044 58.5213C12.798 58.7401 12.3416 58.8495 11.8352 58.8495ZM11.8352 57.7054C12.0728 57.7054 12.2947 57.6492 12.501 57.5366C12.7136 57.4178 12.8824 57.2428 13.0075 57.0115C13.1325 56.7801 13.195 56.4988 13.195 56.1675C13.195 55.6736 13.0637 55.2953 12.8011 55.0327C12.5448 54.7639 12.2291 54.6295 11.854 54.6295C11.4789 54.6295 11.1631 54.7639 10.9068 55.0327C10.6567 55.2953 10.5317 55.6736 10.5317 56.1675C10.5317 56.6614 10.6536 57.0427 10.8974 57.3116C11.1475 57.5741 11.4601 57.7054 11.8352 57.7054ZM20.4788 53.5698L17.2622 61.2222H15.8649L16.9902 58.6338L14.9083 53.5698H16.3806L17.7217 57.199L19.0815 53.5698H20.4788ZM25.1815 54.8639V55.9705H21.2053V54.8639H25.1815ZM30.6958 52.2194V53.2791H27.9668V54.9577H30.0581V55.9987H27.9668V58.7651H26.6539V52.2194H30.6958ZM32.9397 54.3763C33.1085 54.1012 33.3273 53.8855 33.5962 53.7292C33.8712 53.5729 34.1838 53.4947 34.5339 53.4947V54.8733H34.187C33.7743 54.8733 33.4617 54.9702 33.2492 55.164C33.0429 55.3578 32.9397 55.6954 32.9397 56.1768V58.7651H31.6268V53.5698H32.9397V54.3763ZM40.2479 56.0549C40.2479 56.2425 40.2354 56.4113 40.2104 56.5613H36.4123C36.4436 56.9364 36.5749 57.2303 36.8062 57.4429C37.0375 57.6554 37.322 57.7617 37.6596 57.7617C38.1472 57.7617 38.4942 57.5523 38.7005 57.1334H40.1166C39.9665 57.6335 39.679 58.0462 39.2538 58.3713C38.8287 58.6901 38.3067 58.8495 37.6877 58.8495C37.1876 58.8495 36.7374 58.7401 36.3373 58.5213C35.9434 58.2962 35.6339 57.9805 35.4089 57.5741C35.1901 57.1678 35.0807 56.6989 35.0807 56.1675C35.0807 55.6298 35.1901 55.1578 35.4089 54.7514C35.6277 54.345 35.934 54.0324 36.3279 53.8136C36.7218 53.5948 37.1751 53.4854 37.6877 53.4854C38.1816 53.4854 38.6224 53.5917 39.01 53.8042C39.4039 54.0168 39.7071 54.32 39.9197 54.7139C40.1385 55.1015 40.2479 55.5485 40.2479 56.0549ZM38.8881 55.6798C38.8818 55.3422 38.7599 55.0734 38.5223 54.8733C38.2848 54.667 37.9941 54.5638 37.6502 54.5638C37.3251 54.5638 37.05 54.6639 36.8249 54.8639C36.6061 55.0577 36.4717 55.3297 36.4217 55.6798H38.8881ZM46.0358 56.0549C46.0358 56.2425 46.0233 56.4113 45.9983 56.5613H42.2002C42.2315 56.9364 42.3628 57.2303 42.5941 57.4429C42.8254 57.6554 43.1099 57.7617 43.4475 57.7617C43.9352 57.7617 44.2821 57.5523 44.4885 57.1334H45.9045C45.7545 57.6335 45.4669 58.0462 45.0418 58.3713C44.6166 58.6901 44.0946 58.8495 43.4756 58.8495C42.9755 58.8495 42.5253 58.7401 42.1252 58.5213C41.7314 58.2962 41.4219 57.9805 41.1968 57.5741C40.978 57.1678 40.8686 56.6989 40.8686 56.1675C40.8686 55.6298 40.978 55.1578 41.1968 54.7514C41.4156 54.345 41.722 54.0324 42.1158 53.8136C42.5097 53.5948 42.963 53.4854 43.4756 53.4854C43.9695 53.4854 44.4103 53.5917 44.7979 53.8042C45.1918 54.0168 45.495 54.32 45.7076 54.7139C45.9264 55.1015 46.0358 55.5485 46.0358 56.0549ZM44.676 55.6798C44.6698 55.3422 44.5479 55.0734 44.3103 54.8733C44.0727 54.667 43.782 54.5638 43.4381 54.5638C43.113 54.5638 42.8379 54.6639 42.6129 54.8639C42.3941 55.0577 42.2596 55.3297 42.2096 55.6798H44.676Z" fill="#FB9191"/>
<defs>
<clipPath id="clip0_433_135">
<rect width="26.2582" height="26.2582" fill="white" transform="translate(12.0376 11.2535)"/>
</clipPath>
</defs>
</svg>
