<svg width="69" height="63" viewBox="0 0 69 63" fill="none" xmlns="http://www.w3.org/2000/svg">
<path d="M34.3223 42.527C44.5213 42.527 52.7892 34.2591 52.7892 24.0601C52.7892 13.8612 44.5213 5.59326 34.3223 5.59326C24.1234 5.59326 15.8555 13.8612 15.8555 24.0601C15.8555 34.2591 24.1234 42.527 34.3223 42.527Z" stroke="#FB9191" stroke-width="1.86444" stroke-linecap="round" stroke-linejoin="round"/>
<path d="M47.0174 11.3643L21.6255 36.7562" stroke="#FB9191" stroke-width="1.86444" stroke-linecap="round" stroke-linejoin="round"/>
<g clip-path="url(#clip0_471_188)">
<path d="M37.632 32.1617H39.4934C41.2374 32.1617 42.6567 30.687 42.6567 28.8786C42.6616 27.5408 42.155 26.2936 41.2308 25.3654C40.8756 25.0076 40.4649 24.7096 40.0146 24.4828C40.1402 24.2291 40.2096 23.9461 40.2096 23.6475C40.2096 22.3293 39.4697 21.1711 38.3555 20.5087C38.5037 20.212 38.5795 19.8844 38.5767 19.5528C38.5739 19.2212 38.4925 18.8949 38.3392 18.6008L36.1401 14.4236C35.8146 13.7947 35.1898 13.4032 34.5103 13.4008H34.503C33.8227 13.4008 33.1946 13.7898 32.8626 14.4171V14.4187L30.6611 18.5992C30.5069 18.8932 30.4252 19.2197 30.4225 19.5517C30.4198 19.8836 30.4962 20.2114 30.6456 20.5079C29.5305 21.1702 28.7899 22.3302 28.7899 23.6475C28.7899 23.9469 28.86 24.2315 28.9864 24.4869C27.4236 25.2756 26.3428 26.9462 26.3428 28.8753C26.3428 30.687 27.7621 32.1617 29.506 32.1617H31.3691L31.2541 32.7792C31.1578 33.2972 31.4898 33.7931 31.927 33.7931H37.0757C37.5121 33.7931 37.8359 33.2972 37.7478 32.7792L37.632 32.1617ZM39.4934 30.5303H29.506C28.6618 30.5303 27.9742 29.7881 27.9742 28.8753C27.9742 27.0889 29.3364 25.6362 31.011 25.6362C31.2273 25.6362 31.4348 25.5502 31.5878 25.3973C31.7407 25.2443 31.8267 25.0368 31.8267 24.8205C31.8267 24.6041 31.7407 24.3967 31.5878 24.2437C31.4348 24.0907 31.2273 24.0048 31.011 24.0048H30.8935C30.6374 24.0048 30.4212 23.8408 30.4212 23.6475C30.4212 22.4949 31.4849 21.5577 32.7933 21.5577C33.0096 21.5577 33.2171 21.4718 33.3701 21.3188C33.523 21.1658 33.609 20.9583 33.609 20.742C33.609 20.5257 33.523 20.3182 33.3701 20.1652C33.2171 20.0123 33.0096 19.9263 32.7933 19.9263H32.3022C32.2125 19.9263 32.1513 19.857 32.1163 19.7982C32.077 19.7325 32.0553 19.6578 32.0531 19.5812C32.051 19.5047 32.0685 19.4289 32.104 19.361L34.3056 15.1798C34.3562 15.0835 34.4263 15.0321 34.503 15.0321C34.5772 15.0321 34.6433 15.0819 34.6939 15.179L36.8946 19.3586C36.9308 19.427 36.9488 19.5036 36.947 19.581C36.9451 19.6584 36.9234 19.7341 36.884 19.8007C36.8489 19.8578 36.7886 19.9263 36.6972 19.9263H36.2062C35.9898 19.9263 35.7823 20.0123 35.6294 20.1652C35.4764 20.3182 35.3905 20.5257 35.3905 20.742C35.3905 20.9583 35.4764 21.1658 35.6294 21.3188C35.7823 21.4718 35.9898 21.5577 36.2062 21.5577C37.5145 21.5577 38.5782 22.4958 38.5782 23.6475C38.5782 23.8408 38.3612 24.0048 38.1059 24.0048H37.9884C37.7721 24.0048 37.5646 24.0907 37.4117 24.2437C37.2587 24.3967 37.1728 24.6041 37.1728 24.8205C37.1728 25.0368 37.2587 25.2443 37.4117 25.3973C37.5646 25.5502 37.7721 25.6362 37.9884 25.6362C38.7682 25.6362 39.5097 25.9494 40.075 26.5163C40.6908 27.1354 41.0285 27.9723 41.0253 28.8753C41.0253 29.7881 40.3385 30.5303 39.4934 30.5303Z" fill="#FB9191"/>
</g>
<path d="M5.07129 51.9687V53.0221H3.33736V58.4756H2.03224V53.0221H0.298311V51.9687H5.07129ZM7.32865 54.1128C7.49645 53.8393 7.71397 53.6249 7.98121 53.4696C8.25466 53.3142 8.5654 53.2365 8.91343 53.2365V54.6069H8.56851C8.15833 54.6069 7.84759 54.7032 7.63628 54.8959C7.4312 55.0885 7.32865 55.4241 7.32865 55.9027V58.4756H6.02354V53.3111H7.32865V54.1128ZM14.5934 55.7815C14.5934 55.9679 14.581 56.1357 14.5561 56.2849H10.7806C10.8117 56.6578 10.9422 56.9498 11.1722 57.1612C11.4021 57.3725 11.6849 57.4781 12.0205 57.4781C12.5053 57.4781 12.8502 57.2699 13.0553 56.8535H14.4629C14.3138 57.3507 14.0279 57.7609 13.6053 58.0841C13.1827 58.401 12.6637 58.5595 12.0485 58.5595C11.5513 58.5595 11.1038 58.4507 10.7061 58.2332C10.3145 58.0095 10.0069 57.6956 9.78316 57.2917C9.56565 56.8877 9.45689 56.4216 9.45689 55.8933C9.45689 55.3589 9.56565 54.8896 9.78316 54.4857C10.0007 54.0817 10.3052 53.771 10.6967 53.5535C11.0883 53.3359 11.5388 53.2272 12.0485 53.2272C12.5394 53.2272 12.9776 53.3328 13.3629 53.5441C13.7544 53.7554 14.0559 54.0569 14.2672 54.4484C14.4847 54.8337 14.5934 55.2781 14.5934 55.7815ZM13.2417 55.4086C13.2355 55.073 13.1143 54.8057 12.8781 54.6069C12.642 54.4018 12.353 54.2992 12.0112 54.2992C11.688 54.2992 11.4146 54.3987 11.1908 54.5975C10.9733 54.7902 10.8397 55.0605 10.79 55.4086H13.2417ZM20.347 55.7815C20.347 55.9679 20.3346 56.1357 20.3097 56.2849H16.5342C16.5653 56.6578 16.6958 56.9498 16.9257 57.1612C17.1557 57.3725 17.4385 57.4781 17.7741 57.4781C18.2588 57.4781 18.6037 57.2699 18.8088 56.8535H20.2165C20.0673 57.3507 19.7814 57.7609 19.3588 58.0841C18.9362 58.401 18.4173 58.5595 17.802 58.5595C17.3048 58.5595 16.8574 58.4507 16.4596 58.2332C16.0681 58.0095 15.7605 57.6956 15.5367 57.2917C15.3192 56.8877 15.2104 56.4216 15.2104 55.8933C15.2104 55.3589 15.3192 54.8896 15.5367 54.4857C15.7542 54.0817 16.0588 53.771 16.4503 53.5535C16.8418 53.3359 17.2924 53.2272 17.802 53.2272C18.293 53.2272 18.7311 53.3328 19.1165 53.5441C19.508 53.7554 19.8094 54.0569 20.0207 54.4484C20.2382 54.8337 20.347 55.2781 20.347 55.7815ZM18.9953 55.4086C18.9891 55.073 18.8679 54.8057 18.6317 54.6069C18.3955 54.4018 18.1066 54.2992 17.7647 54.2992C17.4416 54.2992 17.1681 54.3987 16.9444 54.5975C16.7269 54.7902 16.5932 55.0605 16.5435 55.4086H18.9953ZM25.2709 54.5975V55.6976H21.3182V54.5975H25.2709ZM32.2999 58.4756H30.9948L28.0396 54.0102V58.4756H26.7345V51.9594H28.0396L30.9948 56.434V51.9594H32.2999V58.4756ZM38.4652 53.3111V58.4756H37.1507V57.823C36.9829 58.0468 36.7623 58.2239 36.4889 58.3544C36.2216 58.4787 35.9295 58.5408 35.6126 58.5408C35.2086 58.5408 34.8513 58.4569 34.5405 58.2891C34.2298 58.1151 33.9843 57.8634 33.8041 57.534C33.63 57.1984 33.543 56.8007 33.543 56.3408V53.3111H34.8481V56.1544C34.8481 56.5645 34.9507 56.8815 35.1558 57.1052C35.3609 57.3227 35.6405 57.4315 35.9948 57.4315C36.3552 57.4315 36.638 57.3227 36.8431 57.1052C37.0482 56.8815 37.1507 56.5645 37.1507 56.1544V53.3111H38.4652ZM41.2724 54.3831V56.8815C41.2724 57.0555 41.3128 57.1829 41.3936 57.2637C41.4806 57.3383 41.6235 57.3756 41.8224 57.3756H42.4284V58.4756H41.608C40.508 58.4756 39.958 57.9411 39.958 56.8722V54.3831H39.3427V53.3111H39.958V52.0339H41.2724V53.3111H42.4284V54.3831H41.2724ZM47.3383 54.5975V55.6976H43.3857V54.5975H47.3383ZM52.8199 51.9687V53.0221H50.1071V54.6908H52.186V55.7255H50.1071V58.4756H48.802V51.9687H52.8199ZM55.0504 54.1128C55.2182 53.8393 55.4357 53.6249 55.703 53.4696C55.9764 53.3142 56.2872 53.2365 56.6352 53.2365V54.6069H56.2903C55.8801 54.6069 55.5694 54.7032 55.3581 54.8959C55.153 55.0885 55.0504 55.4241 55.0504 55.9027V58.4756H53.7453V53.3111H55.0504V54.1128ZM62.3152 55.7815C62.3152 55.9679 62.3028 56.1357 62.2779 56.2849H58.5024C58.5335 56.6578 58.664 56.9498 58.8939 57.1612C59.1239 57.3725 59.4067 57.4781 59.7423 57.4781C60.227 57.4781 60.5719 57.2699 60.777 56.8535H62.1847C62.0355 57.3507 61.7497 57.7609 61.327 58.0841C60.9044 58.401 60.3855 58.5595 59.7702 58.5595C59.2731 58.5595 58.8256 58.4507 58.4278 58.2332C58.0363 58.0095 57.7287 57.6956 57.5049 57.2917C57.2874 56.8877 57.1787 56.4216 57.1787 55.8933C57.1787 55.3589 57.2874 54.8896 57.5049 54.4857C57.7225 54.0817 58.027 53.771 58.4185 53.5535C58.81 53.3359 59.2606 53.2272 59.7702 53.2272C60.2612 53.2272 60.6994 53.3328 61.0847 53.5441C61.4762 53.7554 61.7776 54.0569 61.9889 54.4484C62.2064 54.8337 62.3152 55.2781 62.3152 55.7815ZM60.9635 55.4086C60.9573 55.073 60.8361 54.8057 60.5999 54.6069C60.3638 54.4018 60.0748 54.2992 59.7329 54.2992C59.4098 54.2992 59.1363 54.3987 58.9126 54.5975C58.6951 54.7902 58.5615 55.0605 58.5117 55.4086H60.9635ZM68.0688 55.7815C68.0688 55.9679 68.0563 56.1357 68.0315 56.2849H64.256C64.2871 56.6578 64.4176 56.9498 64.6475 57.1612C64.8775 57.3725 65.1602 57.4781 65.4958 57.4781C65.9806 57.4781 66.3255 57.2699 66.5306 56.8535H67.9383C67.7891 57.3507 67.5032 57.7609 67.0806 58.0841C66.658 58.401 66.1391 58.5595 65.5238 58.5595C65.0266 58.5595 64.5791 58.4507 64.1814 58.2332C63.7899 58.0095 63.4822 57.6956 63.2585 57.2917C63.041 56.8877 62.9322 56.4216 62.9322 55.8933C62.9322 55.3589 63.041 54.8896 63.2585 54.4857C63.476 54.0817 63.7805 53.771 64.1721 53.5535C64.5636 53.3359 65.0142 53.2272 65.5238 53.2272C66.0148 53.2272 66.4529 53.3328 66.8382 53.5441C67.2298 53.7554 67.5312 54.0569 67.7425 54.4484C67.96 54.8337 68.0688 55.2781 68.0688 55.7815ZM66.717 55.4086C66.7108 55.073 66.5896 54.8057 66.3535 54.6069C66.1173 54.4018 65.8283 54.2992 65.4865 54.2992C65.1633 54.2992 64.8899 54.3987 64.6662 54.5975C64.4486 54.7902 64.315 55.0605 64.2653 55.4086H66.717Z" fill="#FB9191"/>
<defs>
<clipPath id="clip0_471_188">
<rect width="26.1022" height="26.1022" fill="white" transform="translate(21.4487 11.1866)"/>
</clipPath>
</defs>
</svg>
