<svg width="50" height="63" viewBox="0 0 50 63" fill="none" xmlns="http://www.w3.org/2000/svg">
<path d="M24.7808 42.7811C35.0407 42.7811 43.358 34.4638 43.358 24.2039C43.358 13.944 35.0407 5.62671 24.7808 5.62671C14.5209 5.62671 6.20361 13.944 6.20361 24.2039C6.20361 34.4638 14.5209 42.7811 24.7808 42.7811Z" stroke="#FB9191" stroke-width="1.87558" stroke-linecap="round" stroke-linejoin="round"/>
<path d="M20.9577 25.6521H15.6109C15.0488 25.6521 14.7665 24.953 15.1645 24.5444L16.9238 22.7358C17.247 22.3997 17.6348 22.1324 18.0638 21.9497C18.4929 21.7671 18.9544 21.6729 19.4207 21.6729C19.8871 21.6729 20.3486 21.7671 20.7776 21.9497C21.2067 22.1324 21.5945 22.3997 21.9177 22.7358L22.479 23.3127L22.4864 23.2963L22.5274 23.3152C23.3316 21.2038 23.3882 20.2421 23.3849 17.8371L23.3833 17.5351C23.3742 15.5862 23.3628 13.2304 25.5332 12.9186C28.3813 12.5083 30.4615 17.5351 30.802 21.999C31.434 21.7649 32.1205 21.7204 32.7775 21.8708C33.4344 22.0212 34.0331 22.3601 34.5003 22.8458L36.2604 24.6543C36.6592 25.0646 36.377 25.7621 35.8149 25.7621H32.915C32.9929 26.0493 33.0348 26.3537 33.0348 26.6672V32.8641C33.0348 33.8644 31.9475 34.2779 31.2829 33.4935C31.0326 33.1989 30.1152 32.1264 28.9237 30.7364C25.7293 35.3135 17.6926 37.808 15.4238 34.0252C15.4057 34.0262 15.3877 34.0268 15.3696 34.0269H14.5564C14.274 34.0191 14.0057 33.9014 13.8087 33.6989C13.6117 33.4964 13.5015 33.225 13.5015 32.9425C13.5015 32.6599 13.6117 32.3885 13.8087 32.186C14.0057 31.9835 14.274 31.8659 14.5564 31.8581H14.8247C14.8403 30.0118 16.1705 28.4142 17.9396 27.7192C19.0894 27.2676 20.1214 26.5605 20.9577 25.6513V25.6521ZM29.2101 23.3053C29.2101 23.1658 29.2093 23.0247 29.2052 22.8803C29.1586 21.4204 28.9258 19.9724 28.5126 18.5715C28.0966 17.1683 27.5427 16.0228 26.9544 15.2974C26.3586 14.563 25.9623 14.5146 25.767 14.5425C25.5233 14.5778 25.4478 14.6491 25.415 14.6836C25.36 14.7411 25.2673 14.8756 25.1861 15.176C25.0195 15.7963 25.0219 16.5832 25.0252 17.5679V17.8338C25.0277 19.0753 25.0154 20.0542 24.8669 21.0282C24.7528 21.7766 24.5649 22.4889 24.2785 23.3045H29.2101V23.3053ZM25.4158 26.6483C23.6253 30.1127 19.9656 31.8015 16.5332 31.9779C16.4522 31.9816 16.3727 32.0013 16.2993 32.0359C16.2259 32.0704 16.1601 32.1191 16.1056 32.1792C16.0511 32.2392 16.009 32.3095 15.9818 32.3859C15.9545 32.4623 15.9426 32.5433 15.9468 32.6243C15.951 32.7053 15.9711 32.7846 16.006 32.8578C16.041 32.931 16.09 32.9966 16.1504 33.0507C16.2108 33.1049 16.2812 33.1466 16.3578 33.1734C16.4343 33.2003 16.5154 33.2117 16.5964 33.2071C20.2003 33.0225 24.1694 31.2935 26.2741 27.6469L25.4158 26.6483Z" fill="#FB9191"/>
<path d="M15.487 52.2194L13.0862 58.7651H11.492L9.09125 52.2194H10.4979L12.2985 57.4241L14.0897 52.2194H15.487ZM21.1038 56.0549C21.1038 56.2425 21.0913 56.4113 21.0663 56.5613H17.2682C17.2995 56.9364 17.4308 57.2303 17.6621 57.4429C17.8934 57.6554 18.1779 57.7617 18.5155 57.7617C19.0031 57.7617 19.3501 57.5523 19.5564 57.1334H20.9725C20.8224 57.6335 20.5348 58.0462 20.1097 58.3713C19.6846 58.6901 19.1625 58.8495 18.5436 58.8495C18.0434 58.8495 17.5933 58.7401 17.1932 58.5213C16.7993 58.2962 16.4898 57.9805 16.2648 57.5741C16.046 57.1678 15.9365 56.6989 15.9365 56.1675C15.9365 55.6298 16.046 55.1578 16.2648 54.7514C16.4836 54.345 16.7899 54.0324 17.1838 53.8136C17.5777 53.5948 18.0309 53.4854 18.5436 53.4854C19.0375 53.4854 19.4783 53.5917 19.8659 53.8042C20.2598 54.0168 20.563 54.32 20.7755 54.7139C20.9944 55.1015 21.1038 55.5485 21.1038 56.0549ZM19.744 55.6798C19.7377 55.3422 19.6158 55.0734 19.3782 54.8733C19.1407 54.667 18.85 54.5638 18.5061 54.5638C18.181 54.5638 17.9059 54.6639 17.6808 54.8639C17.462 55.0577 17.3276 55.3297 17.2776 55.6798H19.744ZM24.0971 53.4854C24.4847 53.4854 24.8254 53.5635 25.1193 53.7198C25.4131 53.8699 25.6444 54.0668 25.8132 54.3106V53.5698H27.1355V58.8026C27.1355 59.284 27.0386 59.7123 26.8448 60.0874C26.651 60.4688 26.3603 60.7689 25.9727 60.9877C25.5851 61.2128 25.1162 61.3253 24.566 61.3253C23.8283 61.3253 23.2218 61.1534 22.7467 60.8095C22.2778 60.4657 22.0121 59.9968 21.9495 59.4028H23.2531C23.3218 59.6404 23.4688 59.828 23.6938 59.9655C23.9252 60.1093 24.2034 60.1812 24.5285 60.1812C24.9098 60.1812 25.2193 60.0655 25.4569 59.8342C25.6945 59.6091 25.8132 59.2653 25.8132 58.8026V57.9961C25.6444 58.24 25.41 58.4432 25.1099 58.6057C24.8161 58.7683 24.4785 58.8495 24.0971 58.8495C23.6595 58.8495 23.2593 58.737 22.8967 58.5119C22.5341 58.2869 22.2465 57.9711 22.0339 57.5648C21.8276 57.1521 21.7245 56.6801 21.7245 56.1487C21.7245 55.6235 21.8276 55.1578 22.0339 54.7514C22.2465 54.345 22.531 54.0324 22.8873 53.8136C23.25 53.5948 23.6532 53.4854 24.0971 53.4854ZM25.8132 56.1675C25.8132 55.8486 25.7507 55.5766 25.6257 55.3516C25.5007 55.1203 25.3318 54.9452 25.1193 54.8264C24.9067 54.7014 24.6785 54.6389 24.4347 54.6389C24.1909 54.6389 23.9658 54.6982 23.7595 54.817C23.5532 54.9358 23.3844 55.1109 23.2531 55.3422C23.128 55.5673 23.0655 55.8361 23.0655 56.1487C23.0655 56.4613 23.128 56.7364 23.2531 56.974C23.3844 57.2053 23.5532 57.3835 23.7595 57.5085C23.9721 57.6335 24.1971 57.6961 24.4347 57.6961C24.6785 57.6961 24.9067 57.6367 25.1193 57.5179C25.3318 57.3928 25.5007 57.2178 25.6257 56.9927C25.7507 56.7614 25.8132 56.4863 25.8132 56.1675ZM28.0802 56.1487C28.0802 55.6235 28.1834 55.1578 28.3897 54.7514C28.6023 54.345 28.8867 54.0324 29.2431 53.8136C29.6057 53.5948 30.0089 53.4854 30.4528 53.4854C30.8404 53.4854 31.1781 53.5635 31.4656 53.7198C31.7595 53.8761 31.9939 54.0731 32.169 54.3106V53.5698H33.4913V58.7651H32.169V58.0055C32.0002 58.2494 31.7657 58.4525 31.4656 58.6151C31.1718 58.7714 30.8311 58.8495 30.4434 58.8495C30.0058 58.8495 29.6057 58.737 29.2431 58.5119C28.8867 58.2869 28.6023 57.9711 28.3897 57.5648C28.1834 57.1521 28.0802 56.6801 28.0802 56.1487ZM32.169 56.1675C32.169 55.8486 32.1065 55.5766 31.9814 55.3516C31.8564 55.1203 31.6876 54.9452 31.475 54.8264C31.2625 54.7014 31.0343 54.6389 30.7904 54.6389C30.5466 54.6389 30.3215 54.6982 30.1152 54.817C29.9089 54.9358 29.7401 55.1109 29.6088 55.3422C29.4838 55.5673 29.4213 55.8361 29.4213 56.1487C29.4213 56.4613 29.4838 56.7364 29.6088 56.974C29.7401 57.2053 29.9089 57.3835 30.1152 57.5085C30.3278 57.6335 30.5529 57.6961 30.7904 57.6961C31.0343 57.6961 31.2625 57.6367 31.475 57.5179C31.6876 57.3928 31.8564 57.2178 31.9814 56.9927C32.1065 56.7614 32.169 56.4863 32.169 56.1675ZM37.6526 53.4947C38.2715 53.4947 38.7717 53.6917 39.153 54.0856C39.5344 54.4732 39.7251 55.0171 39.7251 55.7173V58.7651H38.4122V55.8955C38.4122 55.4829 38.309 55.1671 38.1027 54.9483C37.8964 54.7233 37.6151 54.6107 37.2587 54.6107C36.8961 54.6107 36.6085 54.7233 36.3959 54.9483C36.1896 55.1671 36.0865 55.4829 36.0865 55.8955V58.7651H34.7736V53.5698H36.0865V54.2168C36.2615 53.9918 36.4835 53.8167 36.7523 53.6917C37.0274 53.5604 37.3275 53.4947 37.6526 53.4947Z" fill="#FB9191"/>
</svg>
