<svg width="55" height="63" viewBox="0 0 55 63" fill="none" xmlns="http://www.w3.org/2000/svg">
<path d="M27.3892 42.7811C37.6491 42.7811 45.9664 34.4638 45.9664 24.2039C45.9664 13.944 37.6491 5.62671 27.3892 5.62671C17.1293 5.62671 8.81201 13.944 8.81201 24.2039C8.81201 34.4638 17.1293 42.7811 27.3892 42.7811Z" stroke="#FB9191" stroke-width="1.87558" stroke-linecap="round" stroke-linejoin="round"/>
<path d="M32.8691 12.8946C31.389 12.15 29.7078 11.904 28.0764 12.1931C26.445 12.4822 24.9508 13.291 23.8166 14.4988C21.3172 14.1254 18.7431 15.3563 17.5475 17.7482C17.191 18.4548 16.9773 19.2246 16.9185 20.0137C16.8597 20.8029 16.957 21.5959 17.2048 22.3474C17.4526 23.099 17.8461 23.7943 18.3628 24.3937C18.8795 24.9931 19.5092 25.4848 20.216 25.8407L20.2193 25.8415C20.6049 26.0343 21.0013 26.182 21.4017 26.2871L21.5297 28.3245C21.5954 29.4733 21.3574 30.6303 20.8404 31.656L20.0445 33.2397C19.7819 33.7649 19.987 34.4132 20.5204 34.6839L22.8016 35.8327C23.3267 36.0953 23.975 35.8902 24.2458 35.3568L25.0417 33.7731C25.5578 32.7416 26.3396 31.8664 27.3065 31.2376L28.9887 30.1298C29.3021 30.3768 29.6451 30.5959 30.0144 30.7805C30.721 31.1371 31.4909 31.3508 32.2802 31.4097C33.0695 31.4685 33.8626 31.3711 34.6142 31.1232C35.3659 30.8753 36.0613 30.4817 36.6607 29.9649C37.2601 29.4481 37.7518 28.8182 38.1076 28.1112L38.1101 28.1063C38.673 26.9702 38.8658 25.6863 38.6616 24.435C38.4573 23.1837 37.8661 22.0279 36.9711 21.1298C37.2675 19.4987 37.0282 17.8156 36.2892 16.3316C35.5502 14.8477 34.351 13.6426 32.8708 12.8962L32.8691 12.8946ZM27.2909 29.342L24.6643 31.0652L25.4299 29.2239C26.0453 29.4118 26.682 29.4463 27.2909 29.342ZM24.0251 28.4673L23.2365 30.3513L23.051 27.2841C23.2969 27.737 23.6281 28.1386 24.0251 28.4673ZM24.7554 15.9143C25.6268 14.8577 26.8313 14.1285 28.1715 13.8463C29.5116 13.564 30.9079 13.7455 32.1314 14.3609C33.3551 14.9777 34.3327 15.9922 34.9038 17.2378C35.4749 18.4835 35.6055 19.8863 35.2742 21.216L35.1495 21.7116L35.5409 22.0423C36.2923 22.6813 36.8086 23.5531 37.0079 24.5192C37.2071 25.4852 37.0778 26.4902 36.6405 27.3743C36.3815 27.8884 36.0237 28.3464 35.5877 28.7221C35.1516 29.0979 34.6458 29.384 34.0991 29.5643C33.5525 29.7445 32.9756 29.8152 32.4016 29.7724C31.8276 29.7297 31.2676 29.5742 30.7537 29.315L30.7504 29.3133C30.0199 28.9505 29.4079 28.3869 28.9862 27.6886L28.5612 26.9829L27.8571 27.4096C27.5075 27.6211 27.1098 27.7402 26.7015 27.7558C26.2931 27.7714 25.8875 27.6828 25.5228 27.4985C25.1581 27.3143 24.8462 27.0403 24.6165 26.7023C24.3868 26.3644 24.2468 25.9736 24.2097 25.5666L24.135 24.7526L23.3202 24.824C22.5416 24.8946 21.7583 24.7556 21.0515 24.4214C20.3447 24.0872 19.7403 23.57 19.3007 22.9235C18.8612 22.2769 18.6027 21.5246 18.552 20.7444C18.5012 19.9643 18.6601 19.1848 19.0122 18.4868L19.0138 18.4835C19.9378 16.6356 22.0024 15.7346 23.934 16.1908L24.4312 16.3082L24.7562 15.9143H24.7554Z" fill="#FB9191"/>
<path d="M7.0949 52.2194L4.69415 58.7651H3.09991L0.699162 52.2194H2.10585L3.90641 57.4241L5.69759 52.2194H7.0949ZM12.7117 56.0549C12.7117 56.2425 12.6992 56.4113 12.6742 56.5613H8.87612C8.90738 56.9364 9.03867 57.2303 9.26999 57.4429C9.50131 57.6554 9.78578 57.7617 10.1234 57.7617C10.611 57.7617 10.958 57.5523 11.1643 57.1334H12.5804C12.4303 57.6335 12.1428 58.0462 11.7176 58.3713C11.2925 58.6901 10.7705 58.8495 10.1515 58.8495C9.65136 58.8495 9.20122 58.7401 8.8011 58.5213C8.40722 58.2962 8.09775 57.9805 7.87268 57.5741C7.65386 57.1678 7.54445 56.6989 7.54445 56.1675C7.54445 55.6298 7.65386 55.1578 7.87268 54.7514C8.0915 54.345 8.39785 54.0324 8.79172 53.8136C9.18559 53.5948 9.63886 53.4854 10.1515 53.4854C10.6454 53.4854 11.0862 53.5917 11.4738 53.8042C11.8677 54.0168 12.1709 54.32 12.3835 54.7139C12.6023 55.1015 12.7117 55.5485 12.7117 56.0549ZM11.3519 55.6798C11.3456 55.3422 11.2237 55.0734 10.9862 54.8733C10.7486 54.667 10.4579 54.5638 10.114 54.5638C9.7889 54.5638 9.51382 54.6639 9.28875 54.8639C9.06993 55.0577 8.93551 55.3297 8.8855 55.6798H11.3519ZM15.705 53.4854C16.0926 53.4854 16.4334 53.5635 16.7272 53.7198C17.021 53.8699 17.2524 54.0668 17.4212 54.3106V53.5698H18.7434V58.8026C18.7434 59.284 18.6465 59.7123 18.4527 60.0874C18.2589 60.4688 17.9682 60.7689 17.5806 60.9877C17.193 61.2128 16.7241 61.3253 16.1739 61.3253C15.4362 61.3253 14.8297 61.1534 14.3546 60.8095C13.8857 60.4657 13.62 59.9968 13.5575 59.4028H14.861C14.9298 59.6404 15.0767 59.828 15.3018 59.9655C15.5331 60.1093 15.8113 60.1812 16.1364 60.1812C16.5178 60.1812 16.8272 60.0655 17.0648 59.8342C17.3024 59.6091 17.4212 59.2653 17.4212 58.8026V57.9961C17.2524 58.24 17.0179 58.4432 16.7178 58.6057C16.424 58.7683 16.0864 58.8495 15.705 58.8495C15.2674 58.8495 14.8672 58.737 14.5046 58.5119C14.142 58.2869 13.8544 57.9711 13.6419 57.5648C13.4355 57.1521 13.3324 56.6801 13.3324 56.1487C13.3324 55.6235 13.4355 55.1578 13.6419 54.7514C13.8544 54.345 14.1389 54.0324 14.4952 53.8136C14.8579 53.5948 15.2611 53.4854 15.705 53.4854ZM17.4212 56.1675C17.4212 55.8486 17.3586 55.5766 17.2336 55.3516C17.1086 55.1203 16.9398 54.9452 16.7272 54.8264C16.5146 54.7014 16.2864 54.6389 16.0426 54.6389C15.7988 54.6389 15.5737 54.6982 15.3674 54.817C15.1611 54.9358 14.9923 55.1109 14.861 55.3422C14.7359 55.5673 14.6734 55.8361 14.6734 56.1487C14.6734 56.4613 14.7359 56.7364 14.861 56.974C14.9923 57.2053 15.1611 57.3835 15.3674 57.5085C15.58 57.6335 15.805 57.6961 16.0426 57.6961C16.2864 57.6961 16.5146 57.6367 16.7272 57.5179C16.9398 57.3928 17.1086 57.2178 17.2336 56.9927C17.3586 56.7614 17.4212 56.4863 17.4212 56.1675ZM24.8554 56.0549C24.8554 56.2425 24.8429 56.4113 24.8178 56.5613H21.0198C21.051 56.9364 21.1823 57.2303 21.4137 57.4429C21.645 57.6554 21.9294 57.7617 22.2671 57.7617C22.7547 57.7617 23.1017 57.5523 23.308 57.1334H24.7241C24.574 57.6335 24.2864 58.0462 23.8613 58.3713C23.4362 58.6901 22.9141 58.8495 22.2952 58.8495C21.795 58.8495 21.3449 58.7401 20.9448 58.5213C20.5509 58.2962 20.2414 57.9805 20.0164 57.5741C19.7975 57.1678 19.6881 56.6989 19.6881 56.1675C19.6881 55.6298 19.7975 55.1578 20.0164 54.7514C20.2352 54.345 20.5415 54.0324 20.9354 53.8136C21.3293 53.5948 21.7825 53.4854 22.2952 53.4854C22.7891 53.4854 23.2299 53.5917 23.6175 53.8042C24.0113 54.0168 24.3146 54.32 24.5271 54.7139C24.7459 55.1015 24.8554 55.5485 24.8554 56.0549ZM23.4956 55.6798C23.4893 55.3422 23.3674 55.0734 23.1298 54.8733C22.8922 54.667 22.6015 54.5638 22.2577 54.5638C21.9326 54.5638 21.6575 54.6639 21.4324 54.8639C21.2136 55.0577 21.0792 55.3297 21.0292 55.6798H23.4956ZM27.3423 54.6482V57.1615C27.3423 57.3366 27.3829 57.4647 27.4642 57.546C27.5517 57.621 27.6955 57.6585 27.8956 57.6585H28.5051V58.7651H27.6799C26.5733 58.7651 26.02 58.2275 26.02 57.1521V54.6482H25.401V53.5698H26.02V52.285H27.3423V53.5698H28.5051V54.6482H27.3423ZM29.1118 56.1487C29.1118 55.6235 29.215 55.1578 29.4213 54.7514C29.6339 54.345 29.9183 54.0324 30.2747 53.8136C30.6373 53.5948 31.0406 53.4854 31.4844 53.4854C31.8721 53.4854 32.2097 53.5635 32.4973 53.7198C32.7911 53.8761 33.0255 54.0731 33.2006 54.3106V53.5698H34.5229V58.7651H33.2006V58.0055C33.0318 58.2494 32.7974 58.4525 32.4973 58.6151C32.2034 58.7714 31.8627 58.8495 31.4751 58.8495C31.0374 58.8495 30.6373 58.737 30.2747 58.5119C29.9183 58.2869 29.6339 57.9711 29.4213 57.5648C29.215 57.1521 29.1118 56.6801 29.1118 56.1487ZM33.2006 56.1675C33.2006 55.8486 33.1381 55.5766 33.013 55.3516C32.888 55.1203 32.7192 54.9452 32.5066 54.8264C32.2941 54.7014 32.0659 54.6389 31.822 54.6389C31.5782 54.6389 31.3532 54.6982 31.1468 54.817C30.9405 54.9358 30.7717 55.1109 30.6404 55.3422C30.5154 55.5673 30.4529 55.8361 30.4529 56.1487C30.4529 56.4613 30.5154 56.7364 30.6404 56.974C30.7717 57.2053 30.9405 57.3835 31.1468 57.5085C31.3594 57.6335 31.5845 57.6961 31.822 57.6961C32.0659 57.6961 32.2941 57.6367 32.5066 57.5179C32.7192 57.3928 32.888 57.2178 33.013 56.9927C33.1381 56.7614 33.2006 56.4863 33.2006 56.1675ZM37.1181 54.3763C37.2869 54.1012 37.5057 53.8855 37.7745 53.7292C38.0496 53.5729 38.3622 53.4947 38.7123 53.4947V54.8733H38.3653C37.9527 54.8733 37.6401 54.9702 37.4276 55.164C37.2212 55.3578 37.1181 55.6954 37.1181 56.1768V58.7651H35.8052V53.5698H37.1181V54.3763ZM40.2625 52.9508C40.0311 52.9508 39.8373 52.8789 39.681 52.7351C39.531 52.5851 39.456 52.4007 39.456 52.1818C39.456 51.963 39.531 51.7817 39.681 51.6379C39.8373 51.4879 40.0311 51.4128 40.2625 51.4128C40.4938 51.4128 40.6845 51.4879 40.8345 51.6379C40.9908 51.7817 41.069 51.963 41.069 52.1818C41.069 52.4007 40.9908 52.5851 40.8345 52.7351C40.6845 52.8789 40.4938 52.9508 40.2625 52.9508ZM40.9095 53.5698V58.7651H39.5966V53.5698H40.9095ZM41.8691 56.1487C41.8691 55.6235 41.9723 55.1578 42.1786 54.7514C42.3911 54.345 42.6756 54.0324 43.032 53.8136C43.3946 53.5948 43.7978 53.4854 44.2417 53.4854C44.6293 53.4854 44.9669 53.5635 45.2545 53.7198C45.5484 53.8761 45.7828 54.0731 45.9579 54.3106V53.5698H47.2802V58.7651H45.9579V58.0055C45.7891 58.2494 45.5546 58.4525 45.2545 58.6151C44.9607 58.7714 44.62 58.8495 44.2323 58.8495C43.7947 58.8495 43.3946 58.737 43.032 58.5119C42.6756 58.2869 42.3911 57.9711 42.1786 57.5648C41.9723 57.1521 41.8691 56.6801 41.8691 56.1487ZM45.9579 56.1675C45.9579 55.8486 45.8953 55.5766 45.7703 55.3516C45.6453 55.1203 45.4765 54.9452 45.2639 54.8264C45.0513 54.7014 44.8231 54.6389 44.5793 54.6389C44.3355 54.6389 44.1104 54.6982 43.9041 54.817C43.6978 54.9358 43.529 55.1109 43.3977 55.3422C43.2727 55.5673 43.2101 55.8361 43.2101 56.1487C43.2101 56.4613 43.2727 56.7364 43.3977 56.974C43.529 57.2053 43.6978 57.3835 43.9041 57.5085C44.1167 57.6335 44.3417 57.6961 44.5793 57.6961C44.8231 57.6961 45.0513 57.6367 45.2639 57.5179C45.4765 57.3928 45.6453 57.2178 45.7703 56.9927C45.8953 56.7614 45.9579 56.4863 45.9579 56.1675ZM51.4415 53.4947C52.0604 53.4947 52.5606 53.6917 52.9419 54.0856C53.3233 54.4732 53.514 55.0171 53.514 55.7173V58.7651H52.2011V55.8955C52.2011 55.4829 52.0979 55.1671 51.8916 54.9483C51.6853 54.7233 51.4039 54.6107 51.0476 54.6107C50.685 54.6107 50.3974 54.7233 50.1848 54.9483C49.9785 55.1671 49.8753 55.4829 49.8753 55.8955V58.7651H48.5624V53.5698H49.8753V54.2168C50.0504 53.9918 50.2723 53.8167 50.5412 53.6917C50.8163 53.5604 51.1164 53.4947 51.4415 53.4947Z" fill="#FB9191"/>
</svg>
